<svg width="185" height="66" viewBox="0 0 185 66" fill="none" xmlns="http://www.w3.org/2000/svg">
<path d="M128.21 13.7116C128.056 13.2492 127.902 12.941 127.902 12.941L128.673 10.0129C128.518 11.3999 128.364 13.0951 128.21 13.7116Z" fill="#FBF5B5"/>
<path d="M127.286 13.2493C127.44 12.6328 128.056 10.9376 128.518 10.0129L127.748 12.941C127.594 12.941 127.44 13.0951 127.286 13.2493Z" fill="#FBF5B5"/>
<path d="M118.347 13.8665C119.272 14.3288 120.813 15.0993 121.429 15.4076C121.121 15.4076 120.813 15.4076 120.813 15.4076L118.347 13.8665Z" fill="#FBF5B5"/>
<path d="M184.768 35.7469C184.152 35.1304 183.381 36.2092 182.765 36.6715C179.683 39.1373 176.755 41.603 173.672 43.9147C172.748 44.6852 171.823 45.4558 170.436 45.6099C170.436 44.6852 170.899 44.0688 171.361 43.4524C172.748 41.2948 174.443 39.2914 176.292 37.442C177.063 36.6715 177.217 36.0551 176.755 35.1304C175.676 33.127 174.135 32.8188 172.285 34.3599C169.82 36.3633 167.508 38.5208 164.734 40.216C161.96 42.0654 159.186 44.0688 155.95 45.6099C155.95 45.3017 155.95 45.1476 155.95 44.9935C159.957 38.8291 165.042 33.8975 172.44 30.9695C173.056 30.6612 173.672 30.6612 174.443 30.5071C176.138 30.0448 177.371 31.1236 177.217 32.9729C177.217 33.4352 176.909 34.0517 177.525 34.2058C178.142 34.3599 178.296 33.5893 178.604 33.2811C179.375 31.74 178.604 29.8907 176.909 29.1201C174.597 28.1955 172.285 28.3496 169.974 28.8119C163.964 30.1989 159.34 33.4352 154.871 37.442C151.943 40.0619 149.015 42.6818 145.625 44.8393C145.008 45.1476 144.392 46.0722 143.775 45.6099C143.159 45.1476 144.083 44.377 144.392 43.9147C149.785 34.514 156.258 25.7297 163.655 17.4078C164.888 16.0208 166.121 14.4797 168.279 14.0174C168.895 13.8633 168.895 13.4009 168.587 12.9386C167.816 11.5516 164.888 10.7811 163.501 11.3975C161.652 12.1681 160.265 13.7092 159.032 15.0961C153.792 20.7982 149.323 27.1167 145.008 33.4352C143.929 34.9763 143.159 36.5174 141.618 37.7503C138.536 40.216 135.607 42.8359 132.371 44.9935C131.755 45.3017 131.138 46.3804 130.522 45.764C130.059 45.3017 130.83 44.377 131.138 43.7606C136.532 34.514 142.851 25.8838 149.94 17.716C151.327 16.1749 152.559 14.3256 154.871 13.7092C155.488 13.5551 155.333 13.0928 155.179 12.6304C154.255 11.2434 151.018 10.4729 149.477 11.3975C147.782 12.3222 146.549 13.7092 145.316 15.0961C140.231 20.9523 135.607 27.1167 131.292 33.5893C130.059 35.4386 128.672 37.288 126.823 38.8291C124.512 40.6784 122.354 42.5277 119.888 44.2229C118.964 44.8393 118.039 45.6099 116.498 46.0722C118.347 42.6818 120.351 39.7537 122.508 36.9797C123.587 35.5927 124.666 34.2057 126.515 33.5893C126.977 33.4352 127.131 33.127 127.131 32.8188C126.669 31.4318 125.59 30.5071 124.357 29.8907C123.279 29.4283 122.508 30.0448 121.738 30.6612C119.58 32.5105 117.885 34.6681 116.344 36.8256C113.724 40.3701 109.871 42.6818 106.172 45.3016C105.864 45.6099 105.248 46.0722 104.786 45.6099C104.323 45.1476 104.94 44.6852 105.094 44.377C107.559 40.6783 110.179 36.9797 113.262 33.5893C114.649 32.2023 114.494 31.5859 113.262 29.8907C112.337 28.5037 111.104 28.6578 109.717 29.2742C109.101 29.5825 108.638 29.7366 108.022 30.0448C103.707 32.8188 99.5457 35.7468 95.693 38.9831C95.3848 39.2914 95.2307 39.5996 94.6142 39.5996C96.0012 37.1339 99.0835 33.7434 101.241 32.3564C101.549 32.2023 101.857 31.8941 101.857 31.5859C101.549 30.1989 100.625 29.4284 99.3917 28.8119C98.467 28.3496 97.5423 28.5037 96.7718 29.1201C95.8471 29.8907 94.9225 30.8154 94.1519 31.74C89.9909 37.288 84.5971 41.603 78.5869 45.4558C78.2787 45.764 77.8163 46.0722 77.1999 45.764C78.7409 42.5277 81.0526 39.9078 83.5184 37.442C84.2889 36.6715 84.2889 35.9009 83.8265 35.1304C82.7478 33.2811 81.3609 32.9729 79.6657 34.514C76.4294 37.1338 73.3471 39.7537 69.8026 41.9113C67.6451 43.2983 65.6416 44.6852 62.8677 46.0722C63.7923 44.0688 64.8711 42.6818 65.9499 41.4489C69.9567 36.6715 74.58 32.8188 81.0526 30.9695C83.056 30.353 84.2889 31.1236 84.2889 33.127C84.2889 33.5893 83.9807 34.2058 84.7513 34.514C86.6006 32.2023 86.1382 30.1989 83.3642 29.1201C81.5149 28.3496 79.5115 28.3496 77.8163 28.8119C69.0321 30.8154 62.5594 35.7468 57.9361 42.8359C57.1656 43.9147 57.0115 45.3017 57.1656 46.5346C57.6279 49.4626 60.2478 50.6955 62.8677 49.0003C64.4088 48.0756 65.9499 46.9969 67.491 46.0722C69.3403 44.9934 70.7273 43.2982 72.8848 42.2195C72.4225 43.4523 72.1143 44.377 71.6519 45.3016C70.8814 46.9969 71.1896 48.0756 72.5766 49.3085C73.9635 50.3873 75.3506 50.0791 76.7375 49.3085C78.2786 48.3839 79.9738 47.4592 81.3608 46.2263C82.7478 45.1475 84.1348 43.9147 85.5218 42.8359C85.3677 43.9147 84.7512 44.8393 84.443 45.764C83.8266 47.7674 84.443 49.6167 86.1382 50.3873C87.0628 50.8496 87.9875 50.8496 87.9875 49.6167C88.1416 48.538 88.7581 47.7674 89.5286 46.9969C91.6862 44.6852 93.9978 42.5277 96.4636 40.5242C99.0834 38.3667 101.857 36.2092 105.094 34.8222C104.015 36.2092 102.936 37.4421 102.012 38.8291C100.779 40.6784 99.3917 42.5277 98.6211 44.6852C97.8506 46.5345 98.3128 48.2298 100.008 49.4626C101.549 50.5414 102.782 49.7708 104.169 49.1544C104.785 48.8462 105.556 48.3839 106.172 47.9215C107.714 46.6887 109.255 45.6099 111.104 44.2229C110.95 44.8393 110.796 45.3017 110.642 45.764C110.025 47.3051 110.179 48.538 111.72 49.6167C113.107 50.6955 114.648 50.2332 115.881 49.4626C117.114 48.6921 118.501 47.9215 119.58 46.9969C121.429 45.4558 123.279 43.9147 125.436 42.0653C125.128 43.7605 124.357 44.8393 124.049 46.0722C123.741 47.7674 124.82 48.8462 126.207 49.6167C127.286 50.3873 128.518 50.0791 129.597 49.3085C131.446 48.2297 133.142 46.8428 134.683 45.4558C135.916 44.377 137.303 43.2982 138.69 42.2195C138.69 42.99 138.535 43.6065 138.227 44.2229C137.149 46.5346 137.611 47.9215 139.46 49.3085C140.847 50.2332 142.08 50.0791 144.238 48.6921C146.241 47.4592 147.782 45.6099 150.094 44.377C150.094 45.3016 149.94 46.0722 150.094 46.6886C150.556 49.6167 152.868 50.6955 155.642 49.1544C158.262 47.6133 160.727 45.9181 163.193 44.0688C163.964 43.4524 164.734 42.8359 165.813 42.2195C165.196 43.9147 164.272 45.1475 164.272 46.6886C164.272 49.1544 166.738 50.6955 169.049 49.6167C170.899 48.8462 172.44 47.7674 173.827 46.5346C177.217 43.7606 180.453 40.8325 183.535 37.7503C184.152 37.1338 185.385 36.3633 184.768 35.7469Z" fill="black"/>
<path d="M85.0595 12.0161C88.9122 9.39625 92.7649 7.08462 97.2341 5.38942C98.1588 5.0812 99.3916 4.46474 100.316 5.08118C101.241 5.69762 100.316 6.62228 100.162 7.39283C100.162 7.85515 100.008 8.3175 100.47 8.47161C101.087 8.77983 101.395 8.31752 101.703 8.0093C102.474 6.93053 103.244 5.85175 103.553 4.61887C104.323 1.69078 101.703 -0.620852 98.467 0.149696C94.7683 1.07435 91.378 2.76955 88.1417 4.61887C81.3609 8.77983 75.1965 13.7114 69.3403 18.797C62.2513 25.1155 55.7786 31.8963 49.4601 38.8312C46.2238 42.3758 43.1417 46.0744 40.0595 49.6189C43.604 42.2217 47.919 35.2867 51.4635 27.8894C53.7752 22.9579 56.241 18.0264 56.5492 12.4785C56.8574 7.39285 53.7752 4.31067 48.0732 4.15656C43.2958 4.00245 38.8266 5.2353 34.3574 6.7764C23.8779 10.7832 14.9396 16.6394 7.07996 23.8826C4.30599 26.5025 1.84026 29.2764 0.453269 32.8209C-0.163169 34.5161 -0.317241 36.2114 1.06975 37.5983C2.45673 38.9853 4.30597 38.6771 6.00118 38.3689C6.3094 38.3689 6.61764 38.0607 7.07996 37.9066C7.6964 37.7525 8.31282 37.5983 8.31282 36.9819C8.31282 36.2114 7.6964 36.2114 7.07996 36.2114C5.69298 36.0573 5.69302 35.2867 6.15534 34.208C6.46356 33.5915 6.92587 32.9751 7.3882 32.3586C11.5492 27.273 16.4807 22.6497 21.8745 18.4887C26.8061 14.636 32.0457 11.2456 37.9019 8.77985C41.2923 7.23875 44.6828 6.31406 48.5355 6.62228C51.1554 6.77639 52.3882 8.16337 51.7718 10.475C51.4635 11.862 51.0012 13.4031 50.5389 14.636C47.6108 21.5709 43.9122 28.3518 40.3677 34.9785C37.1314 41.4511 33.5868 47.7696 30.967 54.5504C29.8882 57.1703 28.9636 59.636 28.8095 62.41C28.6554 63.797 29.58 64.7216 30.6587 65.184C31.8916 65.8004 33.1245 65.4922 34.2033 64.8758C34.5115 64.7217 35.1279 64.2593 34.5115 63.9511C32.9704 63.3347 33.8951 62.5641 34.2033 61.9477C34.9739 60.7148 35.5902 59.636 36.3608 58.5573C41.2923 51.4682 47.1485 44.9956 53.3129 38.8312C63.1759 29.1223 73.3472 19.8757 85.0595 12.0161Z" fill="black"/>
<path d="M131.909 17.8722C132.525 17.8722 134.683 17.7181 135.608 17.8722L132.371 18.1804C132.217 18.1804 132.063 18.0263 131.909 17.8722Z" fill="#FBF5B5"/>
<path d="M135.299 18.1829C133.912 18.6452 132.371 18.9534 131.909 19.1075C132.063 18.7993 132.217 18.6452 132.371 18.4911L135.299 18.1829Z" fill="#FBF5B5"/>
<path d="M128.21 16.793C128.673 15.5601 128.364 14.4813 128.21 13.7108C128.673 13.2485 128.827 9.70396 128.827 9.39574V9.24162L129.751 6.15942C131.292 9.85806 130.83 12.6321 130.214 14.1731C129.597 15.7142 128.673 16.6389 128.364 16.9471L128.21 16.793Z" fill="#FBF5B5"/>
<path d="M128.518 20.3399C128.364 20.3399 128.364 20.1857 128.364 20.0316C129.751 20.1857 130.83 19.7234 131.292 19.4152C131.446 19.2611 131.601 19.2611 131.601 19.1069C132.063 19.1069 135.299 18.1823 135.916 18.0282L139.152 17.72C134.683 22.3433 129.905 20.9563 128.518 20.3399C128.518 20.3399 128.673 20.3399 128.518 20.3399Z" fill="#FBF5B5"/>
<path d="M128.21 17.5636C128.21 17.2554 128.21 17.2554 128.364 17.2554C131.447 15.252 134.221 15.4061 136.07 16.0225C137.765 16.4848 138.844 17.4095 139.152 17.5636L135.916 17.8718C135.145 17.5636 131.755 17.7177 131.447 17.7177C130.676 17.2554 129.905 17.2554 129.289 17.2554C128.827 17.2554 128.518 17.4095 128.21 17.5636Z" fill="#FBF5B5"/>
<path d="M128.519 24.0368C128.673 23.2662 128.673 22.1875 128.056 20.9546H128.21C128.364 21.1087 129.597 22.1875 130.368 23.8827C131.138 25.5779 131.755 28.3519 130.06 31.8964L128.981 28.506C128.981 28.3518 128.981 27.4272 128.364 24.4991C128.364 24.345 128.364 24.1909 128.519 24.0368Z" fill="#FBF5B5"/>
<path d="M127.902 25.2704L128.673 27.5821L127.286 24.8081C127.44 24.9622 127.594 25.1163 127.902 25.2704Z" fill="#FBF5B5"/>
<path d="M128.827 28.0425L128.056 25.2685C128.056 25.2685 128.21 24.9603 128.364 24.6521C128.673 26.3473 128.827 27.4261 128.827 28.0425Z" fill="#FBF5B5"/>
<path d="M125.128 16.0246C124.512 12.7883 125.744 10.3225 126.977 8.78144C128.056 7.39445 129.135 6.62389 129.597 6.31567L128.673 9.55199C128.056 10.4766 127.131 13.2506 126.977 13.4047C125.899 14.3294 125.436 15.8705 125.436 16.1787C125.436 16.1787 125.282 16.0246 125.128 16.0246Z" fill="#FBF5B5"/>
<path d="M125.128 25.2689C124.82 23.4196 125.128 22.1867 125.282 21.8785L125.436 21.7244C125.436 22.1867 125.744 23.2654 126.977 24.4983L128.827 28.3511L129.905 31.7415C126.515 29.584 125.436 27.1182 125.128 25.2689Z" fill="#FBF5B5"/>
<path d="M124.974 18.3348C125.128 18.3348 125.128 18.3348 125.282 18.1807V18.0266H125.436C125.436 18.0266 125.59 18.1807 125.59 18.0266H125.744C125.744 18.1807 125.899 18.3348 126.053 18.3348H126.207C126.207 18.4889 126.207 18.643 126.361 18.643C126.361 18.643 126.361 18.6431 126.361 18.7972C126.207 18.9513 126.207 18.9512 126.207 19.1054C126.207 19.1054 126.207 19.1054 126.207 19.2595C126.053 19.2595 125.899 19.2595 125.899 19.4136C125.899 19.5677 125.899 19.5677 125.744 19.5677C125.59 19.5677 125.436 19.4136 125.436 19.5677L125.282 19.7218C125.282 19.7218 125.282 19.7218 125.128 19.5677C124.974 19.4136 124.82 19.2595 124.82 19.4136C124.82 19.4136 124.666 19.4136 124.82 19.2595C124.82 19.1054 124.82 18.9512 124.666 18.9512L124.512 18.7972C124.512 18.7972 124.512 18.7972 124.666 18.643C124.974 18.643 124.974 18.643 124.974 18.3348C124.82 18.4889 124.82 18.4889 124.974 18.3348C124.974 18.3348 124.82 18.3348 124.974 18.3348Z" fill="#231F20"/>
<path d="M124.82 18.9496C124.82 18.9496 124.82 19.1037 124.974 19.1037C125.128 19.1037 125.128 19.2578 125.128 19.4119V19.5661C125.282 19.5661 125.436 19.566 125.436 19.7201C125.436 19.7201 125.436 19.8743 125.59 19.8743C125.59 19.8743 125.744 19.8742 125.744 19.7201C125.899 19.7201 125.899 19.7201 126.053 19.7201C126.053 19.7201 126.053 19.5661 126.207 19.5661C126.207 19.5661 126.361 19.4119 126.515 19.4119C126.515 19.4119 126.515 19.4119 126.515 19.2578C126.361 19.1037 126.515 18.9496 126.669 18.9496C126.669 18.9496 126.669 18.9496 126.669 18.7955C126.515 18.6414 126.515 18.4873 126.515 18.4873C126.515 18.4873 126.515 18.4873 126.361 18.4873C126.207 18.4873 126.053 18.3332 126.053 18.179H125.899C125.744 18.179 125.744 18.179 125.744 18.179C125.744 18.179 125.744 18.179 125.59 18.179V18.3332C125.436 18.4873 125.436 18.4873 125.282 18.4873C125.282 18.4873 125.282 18.4873 125.282 18.6414C124.974 18.6414 124.974 18.6414 124.82 18.9496C124.82 18.7955 124.82 18.7955 124.82 18.9496ZM124.82 19.1037C124.82 19.1037 124.666 18.9496 124.666 18.7955C124.666 18.7955 124.666 18.7955 124.666 18.6414V18.4873C124.666 18.4873 124.666 18.3332 124.666 18.179C124.666 18.179 124.666 18.179 124.82 18.179C124.974 18.179 124.974 18.179 124.974 18.179C124.974 18.179 124.974 18.025 125.128 17.8708H125.282C125.282 17.8708 125.436 17.8709 125.436 18.025C125.59 18.025 125.59 17.8709 125.744 18.025C125.744 18.025 125.899 18.0249 125.899 18.179C125.899 18.3332 126.053 18.3332 126.053 18.3332C126.207 18.3332 126.207 18.3332 126.207 18.4873V18.6414C126.207 18.7955 126.207 18.7955 126.207 18.7955C126.361 18.7955 126.361 18.9496 126.361 18.9496V19.1037C126.361 19.1037 126.207 19.2578 126.361 19.2578V19.4119C126.361 19.5661 126.207 19.5661 126.207 19.5661H126.053C126.053 19.7202 125.899 19.8743 125.899 19.8743C125.899 19.8743 125.899 19.8743 125.744 19.8743C125.744 19.8743 125.59 19.7201 125.59 19.8743C125.59 19.8743 125.436 20.0284 125.282 20.0284C125.128 20.0284 125.128 20.0284 125.128 19.8743C124.974 19.7201 124.974 19.7201 124.82 19.7201C124.974 19.566 124.82 19.4119 124.82 19.1037C124.82 19.2578 124.82 19.2578 124.82 19.1037Z" fill="white"/>
<path d="M125.128 22.0342C123.433 25.2705 120.967 26.5034 119.272 27.1198C117.731 27.5822 116.344 27.5822 115.881 27.428C116.19 27.1198 117.268 26.3493 118.347 25.4246C118.501 25.4246 121.583 23.7294 122.046 23.113C122.508 23.113 123.125 22.9589 123.741 22.6507C124.049 22.4966 124.357 22.1883 124.666 21.8801L124.82 22.0342C124.974 22.0342 124.974 22.0342 125.128 22.0342Z" fill="#FBF5B5"/>
<path d="M124.203 16.177C123.587 15.5606 122.508 15.4064 121.738 15.4064C121.429 15.2523 118.81 13.8653 117.885 13.5571L115.111 11.7078C118.655 11.2455 120.967 12.3243 122.354 13.403C123.587 14.3277 124.358 15.4065 124.512 15.7147C124.358 16.0229 124.203 16.177 124.203 16.177Z" fill="#FBF5B5"/>
<path d="M124.049 16.9493C124.203 16.9493 124.203 16.6411 124.357 16.487V16.3329C124.357 16.1788 124.512 16.0247 124.512 16.0247C124.357 16.0247 124.357 16.3329 124.357 16.3329V16.487C124.512 16.6411 124.203 16.7952 124.049 16.9493Z" fill="#FBF5B5"/>
<path d="M124.357 21.2628C124.357 21.1087 124.203 21.1087 124.203 20.9546C124.357 21.1087 124.357 21.1087 124.357 21.2628C124.512 21.4169 124.512 21.4169 124.357 21.2628C124.512 21.571 124.512 21.571 124.666 21.7251C124.666 21.7251 124.512 21.571 124.357 21.2628C124.512 21.4169 124.512 21.4169 124.357 21.2628Z" fill="#FBF5B5"/>
<path d="M124.82 18.4891V18.6432C124.82 18.6432 124.82 18.6432 124.82 18.7973C124.82 18.9514 124.974 19.1055 124.974 19.1055C124.974 19.1055 124.974 19.1055 124.974 19.2596C124.974 19.4137 125.128 19.5679 125.128 19.5679C125.128 19.5679 125.282 19.5678 125.436 19.7219C125.436 19.876 125.59 19.876 125.59 19.876C125.744 19.876 125.744 19.876 125.899 19.7219H126.053H126.207C126.207 19.7219 126.361 19.5678 126.361 19.4137H126.515C126.515 19.4137 126.669 19.4137 126.669 19.2596V19.1055C126.669 18.9514 126.669 18.9514 126.669 18.9514V18.7973C126.669 18.7973 126.669 18.6432 126.515 18.6432C126.361 18.6432 126.361 18.4891 126.515 18.4891V18.3349L126.361 18.1808C126.207 18.1808 126.207 18.1809 126.207 18.0268C126.207 18.0268 126.207 17.8726 126.053 17.8726C125.899 17.8726 125.899 17.8726 125.744 17.8726C125.744 17.8726 125.59 17.8726 125.59 17.7185H125.436C125.282 17.7185 125.282 17.8726 125.282 18.0268C125.282 18.0268 125.282 18.0268 125.128 18.0268C124.974 18.0268 124.974 18.0268 124.974 18.0268C124.666 18.335 124.666 18.4891 124.82 18.4891ZM124.049 20.4925C123.895 20.4925 123.587 20.3384 123.741 19.876C123.741 19.5678 123.741 19.4137 123.587 19.4137C123.587 19.4137 123.125 19.1055 123.125 18.7973V18.6432L123.279 18.4891L123.433 18.3349C123.587 18.1808 123.587 18.0267 123.433 17.8726C123.433 17.7185 123.279 17.5644 123.433 17.4103C123.433 17.4103 123.587 17.2562 123.741 17.2562C124.049 17.2562 124.049 17.2562 124.203 17.1021C124.203 16.948 124.203 16.6398 124.512 16.4857C124.666 16.4857 124.666 16.3316 124.82 16.4857C124.974 16.4857 125.128 16.6397 125.282 16.6397C125.436 16.7938 125.436 16.7938 125.59 16.6397C125.59 16.6397 125.744 16.6398 125.744 16.4857C125.899 16.3316 126.207 16.3315 126.361 16.3315C126.515 16.3315 126.515 16.4857 126.515 16.4857C126.669 16.7939 126.669 16.948 126.977 16.948C127.131 16.948 127.286 16.948 127.44 17.1021C127.594 17.2562 127.594 17.4103 127.594 17.5644C127.594 17.8726 127.594 18.0267 127.748 18.1808C127.902 18.3349 128.056 18.4891 128.056 18.6432C128.056 18.7973 128.056 18.7973 127.902 18.9514C127.748 19.1055 127.594 19.2596 127.748 19.5679C127.902 19.722 127.902 19.8761 127.748 20.0302C127.748 20.1843 127.44 20.3384 127.44 20.3384C127.131 20.3384 126.977 20.3384 126.977 20.3384C126.823 20.8007 126.669 20.9548 126.669 21.109C126.669 21.109 126.669 21.109 126.515 21.109C126.515 21.109 126.361 21.1089 126.361 20.9548C126.207 20.8007 125.899 20.6466 125.744 20.8007C125.59 20.9548 125.436 21.109 125.128 21.109C124.974 21.109 124.82 20.9548 124.82 20.8007C124.512 20.3384 124.049 20.4925 124.049 20.4925Z" fill="white"/>
<path d="M122.971 19.7235C122.971 19.5694 122.971 19.5694 122.971 19.7235C123.279 19.8776 123.279 20.3399 123.279 20.494C123.279 20.494 123.125 20.8023 123.279 20.9564C123.279 21.1105 123.433 21.1105 123.741 21.1105C123.587 21.1105 123.433 21.1105 123.279 20.9564C123.125 20.8023 123.279 20.494 123.279 20.494C123.279 20.3399 123.279 20.1858 123.279 20.0317V19.8776C123.125 19.8776 122.971 19.7235 122.971 19.7235Z" fill="#FBF5B5"/>
<path d="M122.662 19.4155C122.662 19.4155 122.816 19.5696 122.662 19.4155C122.816 19.5696 122.662 19.5696 122.662 19.4155Z" fill="#FBF5B5"/>
<path d="M120.967 16.6416C121.583 17.8745 122.354 18.491 122.662 18.6451L122.508 18.7992C122.354 18.7992 122.354 18.9533 122.2 18.9533C119.272 18.6451 117.423 16.6416 116.344 15.1005C115.419 13.7135 114.957 12.3266 114.803 11.8643L117.422 13.5594C117.731 13.7135 119.734 15.8711 120.967 16.6416Z" fill="#FBF5B5"/>
<path d="M122.354 19.2571C122.2 19.103 122.2 19.103 122.2 19.103C122.354 19.103 122.354 19.103 122.508 19.103C122.508 19.103 122.508 19.2572 122.662 19.4113C122.508 19.4113 122.508 19.4113 122.354 19.2571C122.354 19.2571 122.508 19.2571 122.354 19.2571Z" fill="#FBF5B5"/>
<path d="M118.81 24.9629C119.426 24.1924 120.505 22.9595 121.275 22.343C121.275 22.4971 121.121 22.8053 121.121 23.1136C120.351 23.73 119.58 24.3465 118.81 24.9629Z" fill="#FBF5B5"/>
<path d="M120.967 16.329C120.042 15.7125 118.81 14.6338 118.193 14.0173L120.659 15.7126C120.813 15.8667 120.813 16.1749 120.967 16.329Z" fill="#FBF5B5"/>
<path d="M121.738 23.269C121.275 23.7314 119.58 24.656 118.81 25.1183C119.58 24.5019 120.351 23.8855 121.121 23.269C121.275 23.269 121.429 23.269 121.738 23.269Z" fill="#FBF5B5"/>
<path d="M118.193 25.4221C117.268 26.1926 116.19 26.9631 115.573 27.4255C116.344 23.7268 118.193 21.7234 119.734 20.7988C121.121 19.8741 122.508 19.5659 122.662 19.5659L122.816 19.72C122.508 19.8741 121.429 20.7988 120.967 22.1858C120.351 22.8022 118.655 24.9597 118.193 25.4221Z" fill="#FBF5B5"/>
<path d="M131.909 17.8696C132.063 18.0237 132.217 18.0237 132.371 18.1778L135.608 17.8696C134.529 17.7155 132.525 17.8696 131.909 17.8696ZM132.371 18.4861C132.371 18.6402 132.217 18.7943 131.909 19.1025C132.371 19.1025 134.066 18.6402 135.299 18.1778L132.371 18.4861ZM128.364 20.0272C128.364 20.1813 128.364 20.1813 128.518 20.3354C129.905 20.9518 134.529 22.3388 139.152 17.7155L135.916 18.0238C135.299 18.1779 132.217 19.1025 131.601 19.1025C131.447 19.2566 131.447 19.2566 131.292 19.4107C130.83 19.8731 129.905 20.3354 128.364 20.0272ZM128.364 17.2532C128.364 17.2532 128.364 17.4073 128.21 17.5614C128.364 17.5614 128.827 17.4073 129.443 17.2532C130.06 17.2532 130.83 17.2532 131.601 17.7155C131.909 17.7155 135.145 17.5614 136.07 17.8696L139.306 17.5614C138.998 17.2532 137.765 16.4826 136.224 16.0203C134.375 15.4039 131.447 15.0957 128.364 17.2532ZM128.21 17.7155C128.21 17.7155 128.21 18.0237 128.364 18.1778C128.673 18.3319 128.827 18.6402 128.827 18.6402L132.063 18.3319C130.368 16.945 128.518 17.5614 128.21 17.7155ZM128.518 19.5649C128.364 19.719 128.518 19.8731 128.518 20.0272C129.905 20.1813 130.83 19.8731 131.447 19.4107C131.909 19.1025 132.217 18.7943 132.217 18.6402L128.981 18.9484C128.981 19.1025 128.518 19.4107 128.518 19.5649ZM128.21 13.8628C128.364 14.6333 128.518 15.7121 128.21 16.945L128.364 17.0991C128.673 16.7909 129.597 15.8662 130.214 14.3251C130.83 12.6299 131.292 9.85593 129.751 6.31141L128.827 9.3936V9.54772C128.827 9.85594 128.518 13.2463 128.21 13.8628ZM127.902 12.9381C127.902 12.9381 128.056 13.2463 128.21 13.7087C128.364 13.2463 128.673 11.397 128.673 10.01L127.902 12.9381ZM128.21 20.9518C128.056 20.9518 128.056 20.9518 128.21 20.9518C128.673 22.1847 128.673 23.2635 128.518 24.034C128.518 24.1881 128.518 24.3422 128.364 24.4963C128.981 27.4244 128.981 28.5032 128.981 28.5032L130.06 31.8936C131.755 28.3491 131.138 25.5751 130.368 23.8799C129.443 22.0306 128.364 21.1059 128.21 20.9518ZM127.902 25.2669L128.673 28.0409C128.673 27.5786 128.518 26.4998 128.056 24.6505C128.21 24.9587 128.056 25.1128 127.902 25.2669ZM128.518 10.01C128.056 10.9347 127.44 12.6299 127.286 13.2463C127.44 13.0922 127.594 13.0922 127.748 12.9381L128.518 10.01ZM126.977 16.1744C127.131 16.4826 127.131 16.6367 127.594 16.6367C127.902 16.6367 128.056 16.6367 128.21 16.7908C128.827 15.0956 128.21 13.5546 127.902 13.0922L126.977 16.1744ZM127.131 21.7224C127.131 21.8765 126.977 21.8765 126.977 22.0306L127.902 25.1128C128.21 24.6504 128.827 22.9553 127.902 20.9518C127.902 20.9518 127.902 20.9518 127.748 20.9518C127.594 20.9518 127.748 20.9518 127.594 20.9518C127.286 20.9518 127.286 21.1059 127.131 21.4141C127.131 21.5682 127.131 21.5683 127.131 21.7224ZM127.902 25.2669C127.594 25.1128 127.44 24.9587 127.286 24.8046L128.673 27.5785L127.902 25.2669ZM127.594 13.0922C126.053 14.0169 125.59 15.7121 125.59 16.1744C125.744 16.1744 125.899 16.1744 126.207 15.8662C126.361 15.7121 126.515 15.7121 126.515 15.7121C126.669 15.7121 126.669 15.8662 126.823 16.0203L127.594 13.0922ZM125.59 21.7224C125.59 21.8765 125.59 21.8765 125.59 21.7224C125.744 22.3388 125.899 23.5717 127.748 24.9587L126.823 21.8765C126.669 21.8765 126.361 21.8765 126.207 21.7224C125.899 21.7224 125.744 21.7224 125.59 21.7224ZM126.977 8.77718C125.744 10.3183 124.512 12.784 125.128 16.0203C125.282 16.0203 125.436 16.1744 125.436 16.1744C125.436 15.8662 125.899 14.4792 126.977 13.4005C127.131 13.0922 127.902 10.4724 128.673 9.54772L129.597 6.31141C129.135 6.46552 128.056 7.39019 126.977 8.77718ZM125.282 22.0306C125.282 22.1847 124.82 23.5717 125.128 25.421C125.436 27.1162 126.515 29.7361 129.905 31.8936L128.827 28.5032L126.977 24.6505C125.59 23.4176 125.436 22.3388 125.436 21.8765L125.282 22.0306ZM124.203 16.3285C123.279 15.558 121.584 15.558 120.967 15.558L122.97 16.945C123.125 16.7909 123.279 16.7908 123.587 16.7908C123.741 16.7908 123.895 16.7908 123.895 16.7908C124.049 16.7908 124.203 16.4826 124.203 16.3285ZM121.275 23.1094C121.892 23.1094 123.587 22.9553 124.512 21.8765C124.512 21.7224 124.357 21.7224 124.357 21.5683V21.4141C124.357 21.26 124.357 21.26 124.203 21.26C124.203 21.26 124.049 21.26 123.895 21.26H123.741C123.433 21.4141 122.508 22.1847 121.275 23.1094ZM122.97 17.0991L120.967 15.7121C121.584 17.5614 122.662 18.332 122.97 18.4861C123.125 18.4861 123.279 18.1779 123.125 17.8696C122.816 17.4073 122.816 17.2532 122.97 17.0991ZM118.193 14.0169C118.81 14.6333 120.042 15.8662 120.967 16.3285C120.813 16.1744 120.813 15.8662 120.659 15.558L118.193 14.0169ZM121.429 15.558C120.813 15.2498 119.272 14.4792 118.347 14.0169L120.813 15.558C120.813 15.558 121.121 15.558 121.429 15.558ZM118.81 24.9587C119.58 24.3422 120.351 23.7258 121.121 23.1094C121.121 22.8011 121.121 22.647 121.275 22.3388C120.505 22.9552 119.272 24.1881 118.81 24.9587ZM118.81 25.1128C119.734 24.6504 121.275 23.7258 121.738 23.2635C121.429 23.2635 121.121 23.2635 121.121 23.2635C120.505 23.8799 119.58 24.4963 118.81 25.1128ZM114.957 11.7052L117.731 13.5545C118.81 13.8628 121.429 15.2498 121.584 15.4039C122.354 15.4039 123.433 15.558 124.049 16.1744C124.049 16.0203 124.203 15.8662 124.357 15.8662C124.203 15.558 123.433 14.4792 122.2 13.5545C120.967 12.4758 118.501 11.2429 114.957 11.7052ZM122.046 23.1094C121.583 23.8799 118.501 25.421 118.347 25.421C117.268 26.3457 116.19 27.1162 115.881 27.4244C116.344 27.4244 117.731 27.5785 119.272 27.1162C121.121 26.6539 123.587 25.2669 125.128 22.0306H124.974C124.974 22.0306 124.82 22.0306 124.82 21.8765C124.512 22.1847 124.203 22.3388 123.895 22.647C123.125 22.9553 122.508 23.1094 122.046 23.1094ZM116.344 15.2498C115.111 13.5545 114.649 11.8594 114.649 11.8594V11.7052H114.803C116.498 11.5511 117.885 11.5511 119.272 11.8594C120.351 12.1676 121.429 12.6299 122.354 13.4005C123.741 14.4792 124.512 15.558 124.666 15.8662C124.82 15.8662 124.82 15.8662 124.974 16.0203C124.666 14.6333 124.82 13.2464 125.128 11.8594C125.436 10.7806 126.053 9.70182 126.823 8.62306C128.21 6.92785 129.597 6.00317 129.597 6.00317C130.368 7.69838 130.676 9.23949 130.83 10.7806C130.83 12.0135 130.676 13.2463 130.214 14.3251C129.751 15.4039 129.135 16.3285 128.673 16.7908C129.905 16.0203 131.138 15.7121 132.525 15.558C133.758 15.4039 134.837 15.558 136.07 15.8662C138.073 16.4826 139.306 17.5614 139.306 17.5614C138.227 18.6402 137.149 19.4107 136.07 20.0272C134.837 20.6436 133.604 20.9518 132.217 21.1059C131.292 21.1059 129.905 21.1059 128.364 20.4895C128.364 20.6436 128.21 20.7977 128.21 20.7977C128.518 21.1059 129.597 22.0306 130.368 23.7258C130.83 24.8046 131.138 26.0375 131.138 27.2703C131.138 28.8114 130.83 30.3525 130.06 32.0477V32.2018L129.905 32.0477C128.364 30.9689 127.131 29.8902 126.361 28.6573C125.744 27.5785 125.282 26.4998 124.974 25.421C124.82 24.1881 124.82 23.1094 124.974 22.4929C124.357 23.7258 123.433 24.8046 122.354 25.5751C121.429 26.3457 120.351 26.808 119.118 27.2703C117.114 27.8868 115.419 27.5785 115.419 27.5785C115.727 25.8833 116.344 24.3422 117.268 23.1094C117.885 22.1847 118.81 21.26 119.734 20.6436C120.967 19.7189 122.2 19.4107 122.508 19.4107C122.508 19.4107 122.508 19.4107 122.662 19.4107C122.662 19.4107 122.662 19.4107 122.816 19.4107C122.816 19.4107 122.816 19.4107 122.97 19.5649C122.816 19.5649 122.816 19.4107 122.816 19.4107C122.662 19.4107 121.275 19.7189 119.888 20.6436C118.501 21.5682 116.652 23.5717 115.727 27.2703C116.344 26.808 117.268 26.0374 118.347 25.2669C118.655 24.8046 120.351 22.647 121.275 22.1847C121.738 20.7977 122.816 19.873 123.125 19.7189V19.873C122.816 20.1813 121.275 21.26 121.275 22.9552C122.354 22.0306 123.279 21.4142 123.587 21.1059C123.433 21.1059 123.279 20.9518 123.279 20.9518C123.125 20.7977 123.279 20.4895 123.279 20.4895C123.279 20.4895 123.279 20.3354 123.279 20.0272C123.279 20.1813 123.279 20.3354 123.279 20.4895C123.279 20.4895 123.279 20.7977 123.279 20.9518C123.279 21.1059 123.433 21.1059 123.741 21.1059C123.741 21.1059 123.741 21.1059 123.895 21.1059C124.049 21.1059 123.895 21.1059 124.049 21.1059C124.203 21.1059 124.203 21.1059 124.203 21.1059C124.357 21.1059 124.357 21.26 124.357 21.4141V21.5683C124.357 21.7224 124.512 21.8765 124.512 21.8765L124.666 22.0306H124.82L124.974 21.8765C125.282 21.7224 125.436 21.5683 125.744 21.7224C126.053 21.8765 126.207 21.8765 126.361 21.8765C126.515 21.8765 126.515 21.7224 126.515 21.7224V21.5683C126.669 21.26 126.669 20.9518 127.131 20.9518C127.131 20.9518 127.131 20.9518 127.286 20.9518C127.594 20.9518 127.902 20.7977 127.902 20.4895C127.748 20.3354 127.748 20.1813 127.748 20.1813C127.748 20.1813 127.594 19.719 127.748 19.5649C128.056 19.2566 128.21 19.1025 128.21 18.9484C128.21 18.9484 128.056 18.6402 127.748 18.4861C127.44 18.332 127.44 18.0237 127.44 17.8696C127.44 17.5614 127.44 17.4073 127.594 17.4073C127.594 17.2532 127.44 17.2532 127.44 17.2532C127.286 17.2532 127.131 17.0991 126.977 17.0991C126.669 17.0991 126.515 16.945 126.361 16.7908V16.4827C126.361 16.3285 126.207 16.1744 126.053 16.1744C126.053 16.1744 125.899 16.1744 125.744 16.3285C125.282 16.6368 125.128 16.6367 124.974 16.6367C124.82 16.6367 124.512 16.4827 124.512 16.4827C124.512 16.4827 124.357 16.4826 124.357 16.3285H124.203C124.049 16.3285 124.049 16.6367 124.049 16.6367V16.7908C124.049 16.945 123.895 17.0991 123.741 17.2532C123.587 17.2532 123.587 17.2532 123.433 17.2532H123.279C123.125 17.2532 122.97 17.2532 122.97 17.4073C122.97 17.4073 122.816 17.5614 122.97 18.0238C123.125 18.4861 122.97 18.6402 122.816 18.7943H122.662H122.508C122.508 18.7943 122.508 18.7943 122.354 18.7943C122.354 18.7943 122.354 18.6402 122.508 18.6402C122.2 18.4861 121.429 17.8696 120.813 16.6367C119.58 15.8662 117.423 13.7087 117.423 13.7087V13.8628L114.803 12.1676C115.111 12.3217 115.573 13.7087 116.344 15.2498C117.423 16.7908 119.426 18.6402 122.2 18.9484C122.046 18.9484 122.046 19.1025 122.046 19.1025C120.813 18.9484 119.58 18.4861 118.655 17.7155C117.885 17.0991 117.114 16.1744 116.344 15.2498Z" fill="#FBF5B5"/>
</svg>
