<svg width="40" height="40" viewBox="0 0 40 40" fill="none" xmlns="http://www.w3.org/2000/svg">
<path d="M7.9636 25.4469L12.1969 24.9636C13.2136 24.8469 14.2136 25.1969 14.9303 25.9136L17.9969 28.9803C22.7136 26.5803 26.5803 22.7303 28.9803 17.9969L25.8969 14.9136C25.1803 14.1969 24.8303 13.1969 24.9469 12.1803L25.4303 7.98027C25.6303 6.29694 27.0469 5.03027 28.7469 5.03027H31.6303C33.5136 5.03027 35.0803 6.59694 34.9636 8.48027C34.0803 22.7136 22.6969 34.0803 8.48027 34.9636C6.59694 35.0803 5.03027 33.5136 5.03027 31.6303V28.7469C5.0136 27.0636 6.28027 25.6469 7.9636 25.4469Z" fill="#6D7D8B"/>
</svg>
