<svg width="40" height="40" viewBox="0 0 40 40" fill="none" xmlns="http://www.w3.org/2000/svg">
<path fill-rule="evenodd" clip-rule="evenodd" d="M6.66659 6.66663H33.3333C35.1666 6.66663 36.6666 8.16663 36.6666 9.99996V30C36.6666 31.8333 35.1666 33.3333 33.3333 33.3333H6.66659C4.83325 33.3333 3.33325 31.8333 3.33325 30L3.34992 9.99996C3.34992 8.16663 4.83325 6.66663 6.66659 6.66663ZM20.8833 21.1166L32.6666 13.75C33.0833 13.4833 33.3333 13.0333 33.3333 12.55C33.3333 11.4333 32.1166 10.7666 31.1666 11.35L19.9999 18.3333L8.83325 11.35C7.88325 10.7666 6.66659 11.4333 6.66659 12.55C6.66659 13.0333 6.91659 13.4833 7.33325 13.75L19.1166 21.1166C19.6499 21.45 20.3499 21.45 20.8833 21.1166Z" fill="#6D7D8B"/>
</svg>
