<svg width="49" height="49" viewBox="0 0 49 49" fill="none" xmlns="http://www.w3.org/2000/svg">
<path fill-rule="evenodd" clip-rule="evenodd" d="M44.9167 24.5C44.9167 35.77 35.77 44.9166 24.5 44.9166C13.23 44.9166 4.08334 35.77 4.08334 24.5C4.08334 13.23 13.23 4.08331 24.5 4.08331C35.77 4.08331 44.9167 13.23 44.9167 24.5ZM18.375 29.0937C19.7838 29.0937 20.9271 27.9504 20.9271 26.5416C20.9271 25.1329 19.7838 23.9896 18.375 23.9896C16.9663 23.9896 15.8229 25.1329 15.8229 26.5416C15.8229 27.9504 16.9663 29.0937 18.375 29.0937ZM28.0729 26.5416C28.0729 25.1329 29.2163 23.9896 30.625 23.9896C32.0338 23.9896 33.1771 25.1329 33.1771 26.5416C33.1771 27.9504 32.0338 29.0937 30.625 29.0937C29.2163 29.0937 28.0729 27.9504 28.0729 26.5416ZM35.7292 16.3333C29.8084 16.3333 24.6225 13.1483 21.7642 8.41165C22.6421 8.26873 23.5609 8.16665 24.5 8.16665C30.4209 8.16665 35.6067 11.3516 38.465 16.0883C37.5871 16.2312 36.6684 16.3333 35.7292 16.3333ZM9.02422 19.3346C12.5155 17.3541 15.2105 14.1283 16.4967 10.2696C13.0055 12.25 10.3105 15.4758 9.02422 19.3346ZM40.1596 19.9266C40.5883 21.3762 40.8333 22.9075 40.8333 24.5C40.8333 33.5037 33.5038 40.8333 24.5 40.8333C15.4963 40.8333 8.16668 33.5037 8.16668 24.5C8.16668 24.4652 8.16905 24.4303 8.17137 24.3963C8.17585 24.3306 8.18013 24.268 8.16668 24.2141C13.475 22.2133 17.7421 18.1096 19.8858 12.8829C23.6425 17.4766 29.3388 20.4166 35.7292 20.4166C37.2604 20.4166 38.7304 20.2329 40.1596 19.9266Z" fill="#5A4FF3"/>
</svg>
