<svg width="105" height="76" viewBox="0 0 105 76" fill="none" xmlns="http://www.w3.org/2000/svg">
<path d="M101.632 62.8019L54.4811 32.0943V24.9623C60.4245 23.9717 64.9811 18.8208 64.9811 12.4811C64.9811 5.54717 59.434 0 52.5 0C45.566 0 40.0189 5.54717 40.0189 12.4811C40.0189 13.6698 40.8113 14.4623 42 14.4623C43.1887 14.4623 43.9811 13.6698 43.9811 12.4811C43.9811 7.72641 47.7453 3.96226 52.5 3.96226C57.2547 3.96226 61.0189 7.72641 61.0189 12.4811C61.0189 17.2358 57.2547 21 52.5 21C51.3113 21 50.5189 21.7925 50.5189 22.9811V32.0943L3.16981 63C1.18868 64.3868 0 66.566 0 68.9434C0 72.7076 2.77359 75.6792 6.33962 75.8774H98.4623C102.028 75.6792 105 72.7076 105 68.9434C105 66.3679 103.613 64.1887 101.632 62.8019ZM97.8679 72.1132H7.13208C5.34906 72.1132 3.96226 70.7264 3.96226 68.9434C3.96226 67.9528 4.5566 66.9623 5.34906 66.3679L52.5 35.4623L99.4528 65.9717C100.443 66.566 101.236 67.5566 101.236 68.7453C101.038 70.7264 99.6509 72.1132 97.8679 72.1132Z" fill="#5A4FF3"/>
</svg>
