<svg width="145" height="145" viewBox="0 0 145 145" fill="none" xmlns="http://www.w3.org/2000/svg">
<g id="icon/action/done_all_24px">
<path id="icon/action/done_all_24px_2" fill-rule="evenodd" clip-rule="evenodd" d="M129.926 36.2161L70.2344 95.9077L49.2094 74.9431C48.0807 73.8118 46.5482 73.176 44.9501 73.176C43.3519 73.176 41.8195 73.8118 40.6907 74.9431C38.3344 77.2994 38.3344 81.1056 40.6907 83.4619L65.9449 108.716C68.3011 111.072 72.1074 111.072 74.4636 108.716L138.445 44.7952C140.801 42.439 140.801 38.6327 138.445 36.2765H138.384C136.089 33.8598 132.282 33.8598 129.926 36.2161ZM104.309 36.2765C103.18 35.1451 101.648 34.5094 100.05 34.5094C98.4517 34.5094 96.9193 35.1451 95.7905 36.2765L61.7155 70.3515L70.2342 78.8702L104.309 44.7348C106.605 42.439 106.605 38.5723 104.309 36.2765ZM31.8093 108.776L6.55515 83.5223C4.1989 81.1661 4.1989 77.2994 6.55515 74.9431C7.68393 73.8118 9.2164 73.176 10.8145 73.176C12.4127 73.176 13.9451 73.8118 15.0739 74.9431L44.5572 104.547L40.3281 108.776C37.9718 111.133 34.1656 111.133 31.8093 108.776Z" fill="white"/>
</g>
</svg>
