<svg width="97" height="63" viewBox="0 0 97 63" fill="none" xmlns="http://www.w3.org/2000/svg">
<path d="M90.7419 25.2002V11.0256C90.7426 9.91572 90.4518 8.82537 89.8989 7.86508C89.346 6.9048 88.5508 6.10872 87.5938 5.55754C86.6368 5.00636 85.5521 4.71966 84.4496 4.72652C83.347 4.73338 82.2659 5.03353 81.3157 5.59658C81.1372 3.99671 80.357 2.52635 79.1353 1.4874C77.9137 0.448455 76.3432 -0.0802347 74.7465 0.00988587C73.1497 0.100006 71.6478 0.802098 70.5492 1.972C69.4505 3.14191 68.8385 4.69085 68.8387 6.30078V25.2002H28.1613V6.30078C28.1593 4.69235 27.5463 3.14559 26.4479 1.97753C25.3495 0.809477 23.8488 0.108599 22.2536 0.0185554C20.6583 -0.0714881 19.0892 0.456124 17.868 1.49325C16.6467 2.53037 15.8658 3.99845 15.6853 5.59658C14.7351 5.03329 13.6538 4.73293 12.5512 4.72594C11.4485 4.71896 10.3636 5.00561 9.40644 5.55682C8.44929 6.10803 7.65395 6.90421 7.10104 7.86463C6.54812 8.82506 6.25731 9.91558 6.25806 11.0256V25.2002C4.59832 25.2002 3.00656 25.8639 1.83294 27.0454C0.65933 28.2268 0 29.8292 0 31.5C0 33.1708 0.65933 34.7732 1.83294 35.9546C3.00656 37.1361 4.59832 37.7998 6.25806 37.7998V51.9744C6.25731 53.0844 6.54812 54.1749 7.10104 55.1354C7.65395 56.0958 8.44929 56.892 9.40644 57.4432C10.3636 57.9944 11.4485 58.281 12.5512 58.2741C13.6538 58.2671 14.7351 57.9667 15.6853 57.4034C15.8658 59.0015 16.6467 60.4696 17.868 61.5068C19.0892 62.5439 20.6583 63.0715 22.2536 62.9814C23.8488 62.8914 25.3495 62.1905 26.4479 61.0225C27.5463 59.8544 28.1593 58.3076 28.1613 56.6992V37.7998H68.8387V56.6992C68.8385 58.3092 69.4505 59.8581 70.5492 61.028C71.6478 62.1979 73.1497 62.9 74.7465 62.9901C76.3432 63.0802 77.9137 62.5515 79.1353 61.5126C80.357 60.4737 81.1372 59.0033 81.3157 57.4034C82.2659 57.9665 83.347 58.2666 84.4496 58.2735C85.5521 58.2803 86.6368 57.9936 87.5938 57.4425C88.5508 56.8913 89.346 56.0952 89.8989 55.1349C90.4518 54.1746 90.7426 53.0843 90.7419 51.9744V37.7998C92.4017 37.7998 93.9934 37.1361 95.1671 35.9546C96.3407 34.7732 97 33.1708 97 31.5C97 29.8292 96.3407 28.2268 95.1671 27.0454C93.9934 25.8639 92.4017 25.2002 90.7419 25.2002ZM6.25806 34.6499C5.42819 34.6499 4.63231 34.318 4.0455 33.7273C3.4587 33.1366 3.12903 32.3354 3.12903 31.5C3.12903 30.6646 3.4587 29.8634 4.0455 29.2727C4.63231 28.682 5.42819 28.3501 6.25806 28.3501V34.6499ZM12.5161 55.1243C11.6866 55.1233 10.8912 54.7911 10.3047 54.2006C9.71806 53.6101 9.38808 52.8095 9.3871 51.9744V11.0256C9.3871 10.1902 9.71676 9.38904 10.3036 8.79831C10.8904 8.20759 11.6863 7.87573 12.5161 7.87573C13.346 7.87573 14.1419 8.20759 14.7287 8.79831C15.3155 9.38904 15.6452 10.1902 15.6452 11.0256V51.9744C15.6442 52.8095 15.3142 53.6101 14.7276 54.2006C14.141 54.7911 13.3457 55.1233 12.5161 55.1243ZM25.0323 56.6992C25.0323 57.5346 24.7026 58.3358 24.1158 58.9265C23.529 59.5173 22.7331 59.8491 21.9032 59.8491C21.0734 59.8491 20.2775 59.5173 19.6907 58.9265C19.1039 58.3358 18.7742 57.5346 18.7742 56.6992V6.30078C18.7742 5.46537 19.1039 4.66418 19.6907 4.07346C20.2775 3.48274 21.0734 3.15087 21.9032 3.15087C22.7331 3.15087 23.529 3.48274 24.1158 4.07346C24.7026 4.66418 25.0323 5.46537 25.0323 6.30078V56.6992ZM28.1613 34.6499V28.3501H68.8387V34.6499H28.1613ZM78.2258 56.6992C78.2258 57.5346 77.8961 58.3358 77.3093 58.9265C76.7225 59.5173 75.9267 59.8491 75.0968 59.8491C74.2669 59.8491 73.471 59.5173 72.8842 58.9265C72.2974 58.3358 71.9677 57.5346 71.9677 56.6992V6.30078C71.9677 5.46537 72.2974 4.66418 72.8842 4.07346C73.471 3.48274 74.2669 3.15087 75.0968 3.15087C75.9267 3.15087 76.7225 3.48274 77.3093 4.07346C77.8961 4.66418 78.2258 5.46537 78.2258 6.30078V56.6992ZM87.6129 51.9744C87.6129 52.8098 87.2832 53.611 86.6964 54.2017C86.1096 54.7924 85.3137 55.1243 84.4839 55.1243C83.654 55.1243 82.8581 54.7924 82.2713 54.2017C81.6845 53.611 81.3548 52.8098 81.3548 51.9744V11.0256C81.3548 10.1902 81.6845 9.38904 82.2713 8.79831C82.8581 8.20759 83.654 7.87573 84.4839 7.87573C85.3137 7.87573 86.1096 8.20759 86.6964 8.79831C87.2832 9.38904 87.6129 10.1902 87.6129 11.0256V51.9744ZM90.7419 34.6499V28.3501C91.5718 28.3501 92.3677 28.682 92.9545 29.2727C93.5413 29.8634 93.871 30.6646 93.871 31.5C93.871 32.3354 93.5413 33.1366 92.9545 33.7273C92.3677 34.318 91.5718 34.6499 90.7419 34.6499Z" fill="#5A4FF3"/>
</svg>
