<svg width="94" height="94" viewBox="0 0 94 94" fill="none" xmlns="http://www.w3.org/2000/svg">
<path d="M92.6037 28.4793H65.5205V14.962C65.5205 14.1911 64.8954 13.566 64.1245 13.566C63.3536 13.566 62.7284 14.1911 62.7284 14.962V29.8753C62.7284 30.6462 63.3536 31.2714 64.1245 31.2714H91.2076V62.7288H64.1245C63.3536 62.7288 62.7284 63.3539 62.7284 64.1248V91.208H31.2712V64.1246C31.2712 63.3537 30.646 62.7286 29.8751 62.7286H18.731C17.9601 62.7286 17.335 63.3537 17.335 64.1246C17.335 64.8956 17.9601 65.5207 18.731 65.5207H28.4791V92.6038C28.4791 93.3747 29.1042 93.9999 29.8751 93.9999H64.1247C64.8956 93.9999 65.5207 93.3747 65.5207 92.6038V65.5207H92.6039C93.3748 65.5207 93.9999 64.8956 93.9999 64.1246V29.8753C93.9997 29.1042 93.3746 28.4793 92.6037 28.4793Z" fill="#5A4FF3"/>
<path d="M64.1246 0H29.8752C29.1043 0 28.4792 0.625135 28.4792 1.39604V28.4792H1.39604C0.625135 28.4792 0 29.1043 0 29.8752V64.1248C0 64.8957 0.625135 65.5208 1.39604 65.5208H14.0776C14.8485 65.5208 15.4736 64.8957 15.4736 64.1248C15.4736 63.3539 14.8485 62.7287 14.0776 62.7287H2.79209V31.2713H29.8752C30.6461 31.2713 31.2713 30.6461 31.2713 29.8752V2.79209H62.7287V10.3086C62.7287 11.0795 63.3539 11.7046 64.1248 11.7046C64.8957 11.7046 65.5208 11.0795 65.5208 10.3086V1.39604C65.5206 0.625135 64.8957 0 64.1246 0Z" fill="#5A4FF3"/>
</svg>
