<svg width="102" height="102" viewBox="0 0 102 102" fill="none" xmlns="http://www.w3.org/2000/svg">
<path d="M16.6304 35.4783C16.6304 34.8663 16.1337 34.3696 15.5217 34.3696H6.65215C6.04015 34.3696 5.54346 34.8663 5.54346 35.4783V44.3478C5.54346 44.9598 6.04015 45.4565 6.65215 45.4565H15.5217C16.1337 45.4565 16.6304 44.9598 16.6304 44.3478V35.4783ZM14.413 43.2391H7.76085V36.587H14.413V43.2391Z" fill="#5A4FF3"/>
<path d="M31.0435 35.4783C31.0435 34.8663 30.5468 34.3696 29.9348 34.3696H21.0652C20.4532 34.3696 19.9565 34.8663 19.9565 35.4783V44.3478C19.9565 44.9598 20.4532 45.4565 21.0652 45.4565H29.9348C30.5468 45.4565 31.0435 44.9598 31.0435 44.3478V35.4783ZM28.8261 43.2391H22.1739V36.587H28.8261V43.2391Z" fill="#5A4FF3"/>
<path d="M16.6304 49.8913C16.6304 49.2793 16.1337 48.7826 15.5217 48.7826H6.65215C6.04015 48.7826 5.54346 49.2793 5.54346 49.8913V58.7609C5.54346 59.3729 6.04015 59.8696 6.65215 59.8696H15.5217C16.1337 59.8696 16.6304 59.3729 16.6304 58.7609V49.8913ZM14.413 57.6522H7.76085V51H14.413V57.6522Z" fill="#5A4FF3"/>
<path d="M31.0435 49.8913C31.0435 49.2793 30.5468 48.7826 29.9348 48.7826H21.0652C20.4532 48.7826 19.9565 49.2793 19.9565 49.8913V58.7609C19.9565 59.3729 20.4532 59.8696 21.0652 59.8696H29.9348C30.5468 59.8696 31.0435 59.3729 31.0435 58.7609V49.8913ZM28.8261 57.6522H22.1739V51H28.8261V57.6522Z" fill="#5A4FF3"/>
<path d="M15.5217 63.1957H6.65215C6.04015 63.1957 5.54346 63.6924 5.54346 64.3044V73.1739C5.54346 73.7859 6.04015 74.2826 6.65215 74.2826H15.5217C16.1337 74.2826 16.6304 73.7859 16.6304 73.1739V64.3044C16.6304 63.6924 16.1337 63.1957 15.5217 63.1957ZM14.413 72.0652H7.76085V65.4131H14.413V72.0652Z" fill="#5A4FF3"/>
<path d="M29.9348 63.1957H21.0652C20.4532 63.1957 19.9565 63.6924 19.9565 64.3044V73.1739C19.9565 73.7859 20.4532 74.2826 21.0652 74.2826H29.9348C30.5468 74.2826 31.0435 73.7859 31.0435 73.1739V64.3044C31.0435 63.6924 30.5468 63.1957 29.9348 63.1957ZM28.8261 72.0652H22.1739V65.4131H28.8261V72.0652Z" fill="#5A4FF3"/>
<path d="M49.8912 5.54349H41.0217C40.4097 5.54349 39.913 6.04018 39.913 6.65218V15.5217C39.913 16.1337 40.4097 16.6304 41.0217 16.6304H49.8912C50.5032 16.6304 50.9999 16.1337 50.9999 15.5217V6.65218C50.9999 6.04018 50.5032 5.54349 49.8912 5.54349ZM48.7825 14.4131H42.1304V7.76088H48.7825V14.4131Z" fill="#5A4FF3"/>
<path d="M55.4347 16.6304H64.3043C64.9163 16.6304 65.413 16.1337 65.413 15.5217V6.65218C65.413 6.04018 64.9163 5.54349 64.3043 5.54349H55.4347C54.8227 5.54349 54.326 6.04018 54.326 6.65218V15.5217C54.326 16.1337 54.8227 16.6304 55.4347 16.6304ZM56.5434 7.76088H63.1956V14.4131H56.5434V7.76088Z" fill="#5A4FF3"/>
<path d="M69.8478 16.6304H78.7174C79.3294 16.6304 79.8261 16.1337 79.8261 15.5217V6.65218C79.8261 6.04018 79.3294 5.54349 78.7174 5.54349H69.8478C69.2358 5.54349 68.7391 6.04018 68.7391 6.65218V15.5217C68.7391 16.1337 69.2358 16.6304 69.8478 16.6304ZM70.9565 7.76088H77.6087V14.4131H70.9565V7.76088Z" fill="#5A4FF3"/>
<path d="M49.8912 19.9565H41.0217C40.4097 19.9565 39.913 20.4532 39.913 21.0652V29.9348C39.913 30.5468 40.4097 31.0435 41.0217 31.0435H49.8912C50.5032 31.0435 50.9999 30.5468 50.9999 29.9348V21.0652C50.9999 20.4532 50.5032 19.9565 49.8912 19.9565ZM48.7825 28.8261H42.1304V22.1739H48.7825V28.8261Z" fill="#5A4FF3"/>
<path d="M55.4347 31.0435H64.3043C64.9163 31.0435 65.413 30.5468 65.413 29.9348V21.0652C65.413 20.4532 64.9163 19.9565 64.3043 19.9565H55.4347C54.8227 19.9565 54.326 20.4532 54.326 21.0652V29.9348C54.326 30.5468 54.8227 31.0435 55.4347 31.0435ZM56.5434 22.1739H63.1956V28.8261H56.5434V22.1739Z" fill="#5A4FF3"/>
<path d="M69.8478 31.0435H78.7174C79.3294 31.0435 79.8261 30.5468 79.8261 29.9348V21.0652C79.8261 20.4532 79.3294 19.9565 78.7174 19.9565H69.8478C69.2358 19.9565 68.7391 20.4532 68.7391 21.0652V29.9348C68.7391 30.5468 69.2358 31.0435 69.8478 31.0435ZM70.9565 22.1739H77.6087V28.8261H70.9565V22.1739Z" fill="#5A4FF3"/>
<path d="M49.8912 34.3696H41.0217C40.4097 34.3696 39.913 34.8663 39.913 35.4783V44.3478C39.913 44.9598 40.4097 45.4565 41.0217 45.4565H49.8912C50.5032 45.4565 50.9999 44.9598 50.9999 44.3478V35.4783C50.9999 34.8663 50.5032 34.3696 49.8912 34.3696ZM48.7825 43.2391H42.1304V36.587H48.7825V43.2391Z" fill="#5A4FF3"/>
<path d="M55.4347 45.4565H64.3043C64.9163 45.4565 65.413 44.9598 65.413 44.3478V35.4783C65.413 34.8663 64.9163 34.3696 64.3043 34.3696H55.4347C54.8227 34.3696 54.326 34.8663 54.326 35.4783V44.3478C54.326 44.9598 54.8227 45.4565 55.4347 45.4565ZM56.5434 36.587H63.1956V43.2391H56.5434V36.587Z" fill="#5A4FF3"/>
<path d="M69.8478 45.4565H78.7174C79.3294 45.4565 79.8261 44.9598 79.8261 44.3478V35.4783C79.8261 34.8663 79.3294 34.3696 78.7174 34.3696H69.8478C69.2358 34.3696 68.7391 34.8663 68.7391 35.4783V44.3478C68.7391 44.9598 69.2358 45.4565 69.8478 45.4565ZM70.9565 36.587H77.6087V43.2391H70.9565V36.587Z" fill="#5A4FF3"/>
<path d="M49.8912 48.7826H41.0217C40.4097 48.7826 39.913 49.2793 39.913 49.8913V58.7609C39.913 59.3729 40.4097 59.8696 41.0217 59.8696H49.8912C50.5032 59.8696 50.9999 59.3729 50.9999 58.7609V49.8913C50.9999 49.2793 50.5032 48.7826 49.8912 48.7826ZM48.7825 57.6522H42.1304V51H48.7825V57.6522Z" fill="#5A4FF3"/>
<path d="M65.413 58.7609V49.8913C65.413 49.2793 64.9163 48.7826 64.3043 48.7826H55.4347C54.8227 48.7826 54.326 49.2793 54.326 49.8913V58.7609C54.326 59.3729 54.8227 59.8696 55.4347 59.8696H64.3043C64.9163 59.8696 65.413 59.3729 65.413 58.7609ZM63.1956 57.6522H56.5434V51H63.1956V57.6522Z" fill="#5A4FF3"/>
<path d="M69.8478 59.8696H78.7174C79.3294 59.8696 79.8261 59.3729 79.8261 58.7609V49.8913C79.8261 49.2793 79.3294 48.7826 78.7174 48.7826H69.8478C69.2358 48.7826 68.7391 49.2793 68.7391 49.8913V58.7609C68.7391 59.3729 69.2358 59.8696 69.8478 59.8696ZM70.9565 51H77.6087V57.6522H70.9565V51Z" fill="#5A4FF3"/>
<path d="M98.6739 73.1739H89.8043V70.9565C89.8043 69.982 89.5482 69.023 89.0626 68.1848C88.7555 67.6537 88.0759 67.473 87.5481 67.7801C87.0171 68.0872 86.8364 68.7646 87.1435 69.2946C87.4328 69.7968 87.587 70.3722 87.587 70.9565V73.1739H74.2826V70.9565C74.2826 69.1227 75.7749 67.6304 77.6087 67.6304H84.2609C84.8729 67.6304 85.3696 67.1337 85.3696 66.5217V1.1087C85.3696 0.496696 84.8729 0 84.2609 0H35.4783C34.8663 0 34.3696 0.496696 34.3696 1.1087V28.8261H22.1739C21.5619 28.8261 21.0652 29.3228 21.0652 29.9348C21.0652 30.5468 21.5619 31.0435 22.1739 31.0435H34.3696V99.7826H2.21739V31.0435H17.7391C18.3511 31.0435 18.8478 30.5468 18.8478 29.9348V19.9565C18.8478 19.8955 18.8223 19.8423 18.8135 19.7847C22.5254 15.433 22.3347 8.87289 18.2214 4.75963C17.7879 4.32613 17.0872 4.32613 16.6537 4.75963L2.54224 18.8711C2.10874 19.3046 2.10874 20.0053 2.54224 20.4388C4.70309 22.6008 7.54246 23.6806 10.3818 23.6806C12.5693 23.6806 14.7534 23.032 16.6304 21.7493V28.8261H1.1087C0.496696 28.8261 0 29.3228 0 29.9348V100.891C0 101.503 0.496696 102 1.1087 102H42.1304C42.7424 102 43.2391 101.503 43.2391 100.891V77.6087H54.3261V99.7826H46.5652C45.9532 99.7826 45.4565 100.279 45.4565 100.891C45.4565 101.503 45.9532 102 46.5652 102H98.6739C100.508 102 102 100.508 102 98.6739V76.5C102 74.6662 100.508 73.1739 98.6739 73.1739ZM4.94257 19.6062L17.3888 7.15996C20.0918 10.6368 19.8468 15.6781 16.6537 18.8711C13.4618 22.0642 8.41833 22.3081 4.94257 19.6062ZM60.0736 99.7826H56.5435V76.5C56.5435 75.888 56.0468 75.3913 55.4348 75.3913H42.1304C41.5184 75.3913 41.0217 75.888 41.0217 76.5V99.7826H36.587V2.21739H83.1522V65.413H77.6087C74.552 65.413 72.0652 67.8998 72.0652 70.9565V73.1739H63.1957C61.3619 73.1739 59.8696 74.6662 59.8696 76.5V98.6739C59.8696 99.0642 59.9494 99.4345 60.0736 99.7826ZM63.1957 99.7826C62.5848 99.7826 62.087 99.2848 62.087 98.6739V95.4598C64.2556 95.9022 65.9674 97.614 66.4098 99.7826H63.1957ZM99.7826 98.6739C99.7826 99.2848 99.2848 99.7826 98.6739 99.7826H95.4598C95.9022 97.614 97.614 95.9022 99.7826 95.4598V98.6739ZM99.7826 93.2191C96.3911 93.7081 93.707 96.3911 93.2191 99.7826H68.6504C68.1615 96.3911 65.4785 93.707 62.087 93.2191V87.587H67.6304V88.6956C67.6304 89.3076 68.1271 89.8043 68.7391 89.8043H69.8478V92.0217C69.8478 92.6337 70.3445 93.1304 70.9565 93.1304C71.5685 93.1304 72.0652 92.6337 72.0652 92.0217V89.8043H73.1739C73.7859 89.8043 74.2826 89.3076 74.2826 88.6956V87.587H87.587V88.6956C87.587 89.3076 88.0836 89.8043 88.6956 89.8043H89.8043V92.0217C89.8043 92.6337 90.301 93.1304 90.913 93.1304C91.525 93.1304 92.0217 92.6337 92.0217 92.0217V89.8043H93.1304C93.7424 89.8043 94.2391 89.3076 94.2391 88.6956V87.587H99.7826V93.2191ZM69.8478 87.587V84.2609H72.0652V87.587H69.8478ZM89.8043 87.587V84.2609H92.0217V87.587H89.8043ZM99.7826 85.3696H94.2391V83.1522C94.2391 82.5402 93.7424 82.0435 93.1304 82.0435H88.6956C88.0836 82.0435 87.587 82.5402 87.587 83.1522V85.3696H74.2826V83.1522C74.2826 82.5402 73.7859 82.0435 73.1739 82.0435H68.7391C68.1271 82.0435 67.6304 82.5402 67.6304 83.1522V85.3696H62.087V76.5C62.087 75.8891 62.5848 75.3913 63.1957 75.3913H98.6739C99.2848 75.3913 99.7826 75.8891 99.7826 76.5V85.3696Z" fill="#5A4FF3"/>
<path d="M44.3478 73.1739C44.9601 73.1739 45.4565 72.6775 45.4565 72.0652C45.4565 71.4529 44.9601 70.9565 44.3478 70.9565C43.7355 70.9565 43.2391 71.4529 43.2391 72.0652C43.2391 72.6775 43.7355 73.1739 44.3478 73.1739Z" fill="#5A4FF3"/>
<path d="M48.7826 73.1739C49.395 73.1739 49.8913 72.6775 49.8913 72.0652C49.8913 71.4529 49.395 70.9565 48.7826 70.9565C48.1703 70.9565 47.674 71.4529 47.674 72.0652C47.674 72.6775 48.1703 73.1739 48.7826 73.1739Z" fill="#5A4FF3"/>
<path d="M53.2173 73.1739C53.8297 73.1739 54.326 72.6775 54.326 72.0652C54.326 71.4529 53.8297 70.9565 53.2173 70.9565C52.605 70.9565 52.1086 71.4529 52.1086 72.0652C52.1086 72.6775 52.605 73.1739 53.2173 73.1739Z" fill="#5A4FF3"/>
</svg>
