<svg width="61" height="43" viewBox="0 0 61 43" fill="none" xmlns="http://www.w3.org/2000/svg">
<path d="M60.9634 6.2611C60.9634 4.21068 60.2677 2.63625 58.6933 1.39135C57.2653 0.256298 55.6543 0 53.9334 0C38.3722 0 22.8109 0 7.28631 0C6.5174 0 5.7485 0.0732293 4.97959 0.183073C2.08704 0.622449 0 3.03901 0 6.0048C0 16.2203 0 26.3992 0 36.6146C0 37.7863 0.256305 38.8847 0.951983 39.8367C2.30672 41.7041 4.21068 42.5462 6.5174 42.5462C14.4628 42.5462 22.4448 42.5462 30.3901 42.5462C38.482 42.5462 46.5738 42.5828 54.6657 42.5462C58.5834 42.5462 61 40.0564 61 36.1753C60.9634 26.2161 60.9268 16.2203 60.9634 6.2611ZM58.2173 32.2209C58.2173 33.7221 58.2539 35.2233 58.2173 36.7611C58.1807 38.4088 57.3385 39.3607 55.7275 39.7635C54.8487 39.9832 53.9334 40.0564 53.018 40.0198C45.512 40.0198 38.006 40.0198 30.5 40.0198C22.9574 40.0198 15.4148 40.0198 7.83553 40.0198C6.95678 40.0198 6.11464 39.9466 5.23589 39.7635C3.58823 39.3607 2.70948 38.3355 2.70948 36.6513C2.70948 28.413 2.70948 20.1747 2.67286 11.9364C2.67286 10.8379 3.03901 10.4352 4.10083 10.6182C4.72328 10.7281 5.38235 10.6915 6.0048 10.6182C6.99339 10.545 7.90876 10.3986 8.0186 11.8631C8.05522 12.449 8.67767 12.7053 9.30012 12.6687C9.84934 12.632 10.3253 12.3025 10.3253 11.7533C10.3619 10.6182 11.0576 10.6549 11.8998 10.6549C23.2503 10.6915 34.6008 10.6915 45.9514 10.6549C46.7569 10.6549 47.3794 10.6549 47.5258 11.6435C47.6357 12.3025 48.1483 12.6321 48.8073 12.6321C49.503 12.5954 49.9058 12.1927 49.9058 11.497C49.9424 10.7281 50.3818 10.6549 51.0042 10.6549C52.9814 10.6915 54.9586 10.7281 56.8992 10.6549C58.0708 10.5816 58.1074 11.2041 58.1074 12.0828C58.1807 18.7833 58.2173 25.5204 58.2173 32.2209ZM58.2173 6.77371C58.144 7.57923 57.8145 7.90876 57.009 7.90876C55.105 7.90876 53.1645 7.90876 51.2605 7.90876C50.4184 7.90876 49.979 7.54262 50.0156 6.66386C50.0156 5.96819 50.0156 5.30912 49.979 4.61344C49.9424 3.95438 49.5396 3.62485 48.9172 3.55162C48.2947 3.47839 47.8553 3.77131 47.6357 4.35714C47.416 4.97959 47.3794 5.63865 47.4526 6.2611C47.5624 7.506 47.0498 7.94537 45.8049 7.90876C39.7635 7.87215 33.7221 7.87215 27.7173 7.87215C22.5546 7.87215 17.392 7.83553 12.2293 7.90876C10.9112 7.90876 10.3619 7.46938 10.4718 6.15126C10.5084 5.60204 10.4718 5.05282 10.3986 4.5036C10.2887 3.88115 9.88595 3.55162 9.2635 3.515C8.56782 3.47839 8.09183 3.84453 8.0186 4.5036C7.90876 5.23589 7.90876 5.96818 7.94537 6.70048C7.94537 7.506 7.57923 7.87215 6.77371 7.83553C6.22449 7.83553 5.67527 7.90876 5.12605 7.83553C4.32053 7.72569 3.29531 8.31152 2.81932 7.21308C2.30672 6.0048 2.89255 4.10084 3.91776 3.36855C4.79651 2.7461 5.7485 2.63625 6.77371 2.67286C14.6825 2.67286 22.5912 2.67286 30.5 2.67286C38.5186 2.67286 46.5006 2.67286 54.5192 2.67286C57.1921 2.74609 58.4003 4.13745 58.2173 6.77371Z" fill="black"/>
<path d="M18.7467 20.8704C18.5636 20.7971 18.1975 20.6873 17.6483 20.5042V19.0762C18.0144 19.1129 18.2707 19.3325 18.4172 19.7719L19.2593 19.5888C19.0396 18.8566 18.4904 18.4538 17.6483 18.3439V17.7215H17.099V18.3073C15.9274 18.4538 15.3416 18.9664 15.3416 19.9184C15.3416 20.2845 15.4514 20.5774 15.6711 20.8337C15.8908 21.09 16.3668 21.3097 17.099 21.4562V23.0672C16.5498 23.0306 16.1837 22.7011 16.0372 22.1519L15.1585 22.3716C15.4514 23.2869 16.1105 23.7629 17.099 23.8361V24.6051H17.6483V23.8361C18.2341 23.7995 18.6735 23.6165 19.003 23.3235C19.2959 23.0306 19.479 22.6279 19.479 22.1885C19.479 21.859 19.4058 21.6026 19.2593 21.3463C19.1129 21.09 18.9298 20.9436 18.7467 20.8704ZM17.099 20.4676C16.5498 20.3944 16.2569 20.1747 16.2569 19.7719C16.2569 19.5522 16.3302 19.3692 16.5132 19.2593C16.6597 19.1495 16.8794 19.0762 17.099 19.0762V20.4676V20.4676ZM18.3073 22.8842C18.1243 23.0306 17.9046 23.1038 17.6483 23.1038V21.5294C18.2707 21.6393 18.5636 21.8956 18.5636 22.2983C18.5636 22.5546 18.4904 22.7377 18.3073 22.8842Z" fill="black"/>
<path d="M23.9094 21.3464C24.2389 20.9802 24.3854 20.5408 24.3854 20.0649C24.3854 19.5156 24.2023 19.0763 23.8361 18.7101C23.47 18.344 22.9574 18.1975 22.3349 18.1975C21.7491 18.1975 21.2365 18.3806 20.8703 18.7467C20.5042 19.1129 20.2845 19.5156 20.2113 20.0282L21.1999 20.2845C21.3097 19.5156 21.6759 19.1129 22.2983 19.1129C22.5912 19.1129 22.8475 19.2227 23.0306 19.4058C23.2137 19.5889 23.3235 19.8452 23.3235 20.1015C23.3235 20.3212 23.2137 20.5775 23.0306 20.8704C22.8475 21.1633 22.4814 21.4562 21.9688 21.8224L20.2479 22.9574V23.946H24.3854V23.0673H21.4562C22.7743 22.2984 23.5798 21.7491 23.9094 21.3464Z" fill="black"/>
<path d="M27.937 18.1609H27.2779C27.1681 18.344 27.0216 18.527 26.8019 18.7101C26.5822 18.9298 26.3992 19.0396 26.2893 19.1129C26.1795 19.1861 25.8866 19.3326 25.4106 19.479V20.5042C25.8866 20.3212 26.3992 19.9916 26.9484 19.479V23.0306H25.2275V23.8728H29.5114V23.0306H27.937V18.1609V18.1609Z" fill="black"/>
<path d="M33.1729 18.6002C32.8434 18.3439 32.4406 18.2341 31.9646 18.2341C31.3055 18.2341 30.7929 18.4904 30.3902 19.0396C29.9874 19.5888 29.8043 20.2845 29.8043 21.1999C29.8043 22.0054 29.9874 22.7011 30.3536 23.2503C30.7197 23.7995 31.2689 24.0558 31.928 24.0558C32.4406 24.0558 32.8434 23.9093 33.1729 23.653C33.5024 23.3967 33.7587 23.0306 33.9052 22.5912C34.0516 22.1518 34.1249 21.6392 34.1249 20.9802C34.1249 20.5774 34.0516 20.1746 33.8686 19.6987C33.7587 19.1861 33.5024 18.8199 33.1729 18.6002ZM32.9898 22.1885C32.9166 22.518 32.8067 22.7377 32.6237 22.9207C32.4406 23.1038 32.2209 23.177 31.928 23.177C31.4886 23.177 31.1957 22.994 31.0492 22.5912C30.9028 22.1885 30.7929 21.6759 30.7929 21.0534C30.7929 19.662 31.1591 18.9298 31.928 18.9298C32.3674 18.9298 32.6603 19.1494 32.8067 19.5522C32.9532 19.955 33.0264 20.3943 33.0264 20.8703C33.0997 21.4562 33.063 21.8955 32.9898 22.1885Z" fill="black"/>
<path d="M35.9556 22.8109H34.9304V23.8727H35.9556V22.8109Z" fill="black"/>
<path d="M40.1297 18.6002C39.8001 18.3439 39.3974 18.2341 38.9214 18.2341C38.2623 18.2341 37.7497 18.4904 37.3469 19.0396C36.9442 19.5888 36.7611 20.2845 36.7611 21.1999C36.7611 22.0054 36.9442 22.7011 37.3103 23.2503C37.6765 23.7995 38.2257 24.0558 38.8848 24.0558C39.3974 24.0558 39.8001 23.9093 40.1297 23.653C40.4592 23.3967 40.7155 23.0306 40.862 22.5912C41.0084 22.1518 41.0816 21.6392 41.0816 20.9802C41.0816 20.5774 41.0084 20.1746 40.8253 19.6987C40.7155 19.1861 40.4592 18.8199 40.1297 18.6002ZM39.9832 22.1885C39.91 22.518 39.8001 22.7377 39.6171 22.9207C39.434 23.1038 39.2143 23.177 38.9214 23.177C38.482 23.177 38.1891 22.994 38.0426 22.5912C37.8962 22.1885 37.7863 21.6759 37.7863 21.0534C37.7863 19.662 38.1525 18.9298 38.9214 18.9298C39.3608 18.9298 39.6537 19.1494 39.8001 19.5522C39.9466 19.955 40.0198 20.3943 40.0198 20.8703C40.0565 21.4562 40.0198 21.8955 39.9832 22.1885Z" fill="black"/>
<path d="M45.8049 19.6255C45.6585 19.1861 45.4022 18.82 45.0727 18.5637C44.7431 18.3074 44.3404 18.1975 43.8644 18.1975C43.2053 18.1975 42.6927 18.4538 42.2899 19.003C41.8872 19.5523 41.7041 20.2479 41.7041 21.1633C41.7041 21.9688 41.8872 22.6645 42.2533 23.2137C42.6195 23.7629 43.1687 24.0192 43.8277 24.0192C44.3404 24.0192 44.7431 23.8728 45.0727 23.6165C45.4022 23.3602 45.6585 22.994 45.8049 22.5547C45.9514 22.1153 46.0246 21.6027 46.0246 20.9436C46.0612 20.5042 45.9514 20.1015 45.8049 19.6255ZM44.8896 22.1885C44.8164 22.518 44.7065 22.7377 44.5234 22.9208C44.3404 23.1039 44.1207 23.1771 43.8277 23.1771C43.3884 23.1771 43.0955 22.994 42.949 22.5913C42.8025 22.1885 42.6927 21.6759 42.6927 21.0535C42.6927 19.6621 43.0588 18.9298 43.8277 18.9298C44.2671 18.9298 44.56 19.1495 44.7065 19.5523C44.853 19.955 44.9262 20.3944 44.9262 20.8704C44.9994 21.4562 44.9628 21.8956 44.8896 22.1885Z" fill="black"/>
</svg>
