<svg width="70" height="55" viewBox="0 0 70 55" fill="none" xmlns="http://www.w3.org/2000/svg">
<path d="M47.2339 54.6747C42.5536 54.7173 37.9584 53.9089 33.3206 53.1855C28.5126 52.4197 24.0451 50.4199 19.4073 49.1009C15.1099 47.867 10.855 47.5691 6.6002 49.3562C6.00452 49.6115 5.3663 49.6966 4.72807 49.7817C1.57949 50.2071 -0.462829 48.2074 0.0902999 45.0588C0.813623 40.8465 3.28143 37.783 6.89805 35.7407C8.04685 35.1025 8.34469 34.7195 7.53627 33.5707C6.38746 31.9539 5.87689 29.9967 5.7067 28.0394C5.6216 26.763 5.19611 25.6993 4.55788 24.6356C3.28143 22.5507 2.09008 20.4233 0.813628 18.3384C-0.0373401 16.9343 0.00520313 15.7855 1.15401 14.4665C4.30259 10.8924 7.36607 7.19071 10.4296 3.53155C11.7911 1.91471 12.5995 1.9147 13.9611 3.61664C16.4714 6.72267 18.9392 9.82871 21.4496 12.9347C21.8751 13.4879 22.3431 13.9134 23.1515 13.9985C30.2571 14.7218 37.1925 16.2961 44.2555 17.2321C45.532 17.4023 46.2553 18.3384 47.0212 19.2319C49.8294 22.7634 52.6801 26.2949 55.4458 29.869C56.084 30.6774 56.8499 31.0604 57.8285 31.2731C61.1047 31.9539 64.4235 32.5496 67.4019 34.209C67.8274 34.4217 68.2529 34.677 68.5932 34.9748C70.5505 36.6342 70.4654 38.4638 68.338 39.9104C66.8062 40.9741 65.0192 41.5698 63.2322 42.1229C60.424 42.9314 57.5732 43.5696 54.8501 44.761C53.914 45.1439 52.978 45.5694 52.127 46.1225C50.6378 47.016 50.6378 47.399 51.8717 48.6329C52.2547 49.0583 52.6801 49.4838 52.978 49.9944C53.914 51.6112 53.4035 53.143 51.7015 53.9514C50.34 54.5471 48.8082 54.6322 47.2339 54.6747ZM23.2366 37.315C28.4701 37.5703 33.5333 36.7619 38.2988 34.5493C39.3625 34.0813 41.1921 33.6133 40.9368 32.4645C40.6815 31.2306 38.8519 31.1029 37.4903 31.0178C34.8523 30.7625 32.2995 31.1455 29.7465 31.7837C28.5977 32.0815 27.4915 32.0815 27.2362 30.6349C27.0234 29.2733 28.1722 28.9755 29.1509 28.7627C30.9379 28.3798 32.6824 27.9969 34.512 27.8692C37.4053 27.6565 40.4687 27.8267 42.6812 29.7839C44.213 31.1455 45.7022 31.3157 47.4467 31.2731C48.6806 31.2306 49.8719 31.2731 51.1059 31.2731C51.4462 31.2731 51.9568 31.4433 52.127 31.0604C52.3823 30.5923 51.9143 30.2945 51.659 29.9541C49.4039 27.0608 47.0637 24.2101 44.8087 21.3168C44.2555 20.5935 43.6599 20.2105 42.7238 20.0829C36.0012 19.0617 29.2785 17.998 22.5559 16.9768C21.2369 16.7641 20.1732 16.2961 19.3222 15.1898C17.365 12.6369 15.2801 10.1266 13.2803 7.57365C12.5144 6.59503 11.9613 6.46738 11.0678 7.53109C8.81272 10.3393 6.43001 13.0624 4.08985 15.828C3.45162 16.5514 3.62182 17.147 4.00476 17.8278C5.19611 19.8276 6.34492 21.8699 7.53627 23.8697C8.1745 24.8908 8.51488 25.912 8.59998 27.1459C8.89782 31.8262 11.6209 34.8046 15.7056 36.6768C18.2159 37.6554 20.7688 37.1873 23.2366 37.315ZM46.3404 51.6538C47.1488 51.6538 47.9147 51.6538 48.7231 51.6538C49.1486 51.6538 49.6592 51.6538 49.8294 51.1858C49.9996 50.6752 49.489 50.4624 49.2337 50.1646C47.4041 48.335 47.4041 46.5905 49.1912 44.761C50.7655 43.1867 52.7227 42.2506 54.8075 41.5273C58.3391 40.3359 61.9131 39.2722 65.4446 38.1234C65.8276 37.9958 66.3807 37.9107 66.4233 37.4426C66.4658 36.8469 65.8701 36.7193 65.4446 36.5491C63.2747 35.528 60.9345 34.9748 58.5944 34.5068C55.0203 33.7835 51.4037 34.3366 47.7871 34.1664C45.7447 34.0813 43.7875 34.1239 42.2558 35.8683C41.7877 36.3789 41.0219 36.6768 40.3411 37.0171C34.2141 40.1232 27.6191 40.6763 20.939 40.4636C18.2585 40.3785 15.4928 40.421 13.0676 38.8467C10.6423 37.2724 9.87643 37.315 7.53627 39.102C5.83434 40.421 4.38769 41.9528 3.57927 44.0376C3.23889 44.8886 2.8985 45.8672 3.53672 46.5905C4.2175 47.3564 5.15357 46.7607 5.91944 46.5054C8.42979 45.5694 11.0252 44.9311 13.7058 45.1013C17.4926 45.3141 21.1518 46.3352 24.6833 47.6968C31.6187 50.3348 38.9796 51.1007 46.3404 51.6538Z" fill="black"/>
<path d="M41.4048 12.6369C40.7241 9.27556 38.6817 7.31833 35.3204 6.16952C38.4264 4.85052 40.6815 3.19113 41.4899 0C42.4685 3.02094 44.1279 5.23347 47.7871 6.12698C44.5109 7.61618 42.1282 9.31811 41.4048 12.6369Z" fill="black"/>
<path d="M56.6371 12.254C57.3605 14.0835 58.0412 15.4876 59.6581 16.211C60.509 16.5939 59.8708 16.9343 59.4879 17.147C58.1263 17.9129 57.1902 19.0192 56.7222 20.8062C55.9563 19.0617 55.2756 17.53 53.6162 16.8917C53.0631 16.679 53.2758 16.2961 53.6587 16.0833C55.1054 15.3175 56.1266 14.2112 56.6371 12.254Z" fill="black"/>
</svg>
