<svg width="111" height="120" viewBox="0 0 111 120" fill="none" xmlns="http://www.w3.org/2000/svg">
<path d="M8.05469 38.5355C9.02392 38.6426 9.89568 37.944 10.0014 36.9781L11.0084 27.7853C11.1978 26.0577 12.6572 24.7559 14.4025 24.7559H26.6697V30.6482C26.6697 31.6187 27.4596 32.406 28.4353 32.406C29.4101 32.406 30.2009 31.6187 30.2009 30.6482V24.7559H60.558V30.6482C60.558 31.6187 61.3488 32.406 62.3245 32.406C63.2993 32.406 64.0901 31.6187 64.0901 30.6482V24.7559H76.3564C78.1017 24.7559 79.5611 26.0587 79.7505 27.7863L82.1718 49.8807C82.2702 50.7816 83.0353 51.4481 83.9245 51.4481C83.9879 51.4481 84.0532 51.4444 84.1176 51.438C85.0878 51.3327 85.7876 50.4648 85.6818 49.4998L83.2606 27.4045C82.8753 23.8898 79.9069 21.2393 76.3564 21.2393H64.0892V18.6273C64.0901 8.35602 55.6962 0 45.3795 0C35.0627 0 26.6697 8.35602 26.6697 18.6273V21.2393H14.4025C10.852 21.2393 7.88365 23.8898 7.49834 27.4045L6.4914 36.5973C6.38565 37.5623 7.08545 38.4302 8.05469 38.5355ZM30.2009 18.6273C30.2009 10.2951 37.0104 3.51562 45.3795 3.51562C53.7495 3.51562 60.558 10.2951 60.558 18.6273V21.2393H30.2009V18.6273Z" fill="#5A4FF3"/>
<path d="M92.7644 64.7681C90.6025 66.9205 90.6025 70.4233 92.7644 72.5757C93.8449 73.6523 95.2647 74.1907 96.6855 74.1907C98.1053 74.1907 99.5251 73.6523 100.607 72.5757C102.768 70.4233 102.768 66.9205 100.607 64.7681C98.4446 62.6156 94.9263 62.6156 92.7644 64.7681ZM98.1099 70.09C97.3246 70.8719 96.0464 70.8719 95.261 70.09C94.4757 69.3081 94.4757 68.0356 95.261 67.2546C96.0464 66.4728 97.3246 66.4728 98.1099 67.2546C98.8952 68.0365 98.8952 69.3081 98.1099 70.09Z" fill="#5A4FF3"/>
<path d="M110.479 82.9129L109.657 62.7109C109.504 58.9636 106.437 55.9103 102.674 55.7584L82.3815 54.939C80.3547 54.8566 78.3703 55.6293 76.9357 57.0575L47.4044 86.4587C45.9239 87.9327 45.1671 89.8581 45.1321 91.7935H3.9948L9.23732 43.9407C9.34307 42.9749 8.64327 42.1079 7.67403 42.0026C6.70296 41.8964 5.83304 42.594 5.72728 43.559L0.432353 91.8842C-0.0108835 95.9372 1.30227 100.002 4.0371 103.038C6.77101 106.073 10.6884 107.813 14.7824 107.813H57.8573L67.8236 117.736C69.34 119.246 71.3309 120 73.3218 120C75.3127 120 77.3045 119.246 78.82 117.736L108.351 88.3347C109.786 86.9064 110.562 84.9307 110.479 82.9129ZM14.7824 104.298C11.6898 104.298 8.73155 102.983 6.66617 100.691C5.29049 99.1644 4.39114 97.2931 4.04262 95.3091H45.9055C46.2733 96.0681 46.7736 96.7786 47.4044 97.4066L54.3261 104.298H14.7824ZM105.855 85.849L76.3233 115.25C74.6681 116.897 71.9755 116.898 70.3203 115.25L49.9011 94.921C48.2467 93.273 48.2467 90.5923 49.9011 88.9444L79.4333 59.5432C80.1368 58.8428 81.0968 58.4491 82.0881 58.4491C82.1378 58.4491 82.1884 58.45 82.239 58.4518L102.53 59.2712C104.47 59.3491 106.05 60.9229 106.129 62.8528L106.951 83.0548C106.993 84.0948 106.594 85.1129 105.855 85.849Z" fill="#5A4FF3"/>
<path d="M72.3286 85.025C75.7109 85.025 78.4632 82.2849 78.4632 78.9185C78.4632 75.5511 75.7109 72.811 72.3286 72.811C68.9464 72.811 66.1951 75.5511 66.1951 78.9185C66.1951 82.2849 68.9464 85.025 72.3286 85.025ZM72.3286 76.3275C73.7641 76.3275 74.932 77.4893 74.932 78.9185C74.932 80.3467 73.7641 81.5094 72.3286 81.5094C70.8941 81.5094 69.7262 80.3467 69.7262 78.9185C69.7262 77.4893 70.8941 76.3275 72.3286 76.3275Z" fill="#5A4FF3"/>
<path d="M83.2836 89.9121C79.9014 89.9121 77.15 92.6514 77.15 96.0187C77.15 99.386 79.9014 102.126 83.2836 102.126C86.6658 102.126 89.4172 99.386 89.4172 96.0187C89.4172 92.6514 86.6658 89.9121 83.2836 89.9121ZM83.2836 98.6096C81.8482 98.6096 80.6812 97.4478 80.6812 96.0187C80.6812 94.5905 81.8482 93.4277 83.2836 93.4277C84.7191 93.4277 85.886 94.5905 85.886 96.0187C85.886 97.4478 84.7182 98.6096 83.2836 98.6096Z" fill="#5A4FF3"/>
<path d="M88.0579 77.2623C87.3682 76.5757 86.25 76.5757 85.5612 77.2623L67.555 95.1892C66.8653 95.8759 66.8653 96.9892 67.555 97.6749C67.8989 98.0182 68.3513 98.1903 68.8028 98.1903C69.2544 98.1903 69.7068 98.0182 70.0516 97.6749L88.0579 79.748C88.7476 79.0613 88.7476 77.948 88.0579 77.2623Z" fill="#5A4FF3"/>
</svg>
