<svg width="43" height="53" viewBox="0 0 43 53" fill="none" xmlns="http://www.w3.org/2000/svg">
<path d="M21.3143 0.0106946C27.6444 -0.205103 31.8165 2.85202 34.2262 8.53469C35.1614 10.7286 35.7728 13.0305 36.1684 15.4043C36.8158 19.1088 37.3193 22.8493 37.679 26.6257C37.9667 29.8987 39.4413 32.5242 41.5274 34.898C41.8151 35.2217 42.1388 35.5813 42.3546 35.941C43.5415 37.8472 43.0739 39.6096 41.0958 40.6885C38.7939 41.9474 36.2403 42.307 33.6867 42.5588C32.6437 42.6667 32.2481 43.0264 31.9963 44.0334C30.8814 49.0327 26.4935 52.5214 21.5301 52.4855C16.5308 52.4855 12.2149 48.9967 11.1359 43.9615C10.9201 42.9184 10.4885 42.5948 9.48144 42.5228C6.89187 42.2711 4.30229 41.9114 1.96449 40.6166C-0.0496254 39.4657 -0.697018 37.5235 0.885498 35.941C5.12952 31.697 5.59708 26.2661 6.2085 20.7992C6.748 15.8718 7.46732 10.9804 9.91303 6.55655C12.4307 2.06077 16.315 0.0106946 21.3143 0.0106946ZM21.0985 40.4008C24.5873 40.4727 28.112 40.5087 31.6007 40.1491C34.0824 39.8973 36.636 39.7534 39.0097 38.8543C40.5563 38.2788 40.7721 37.7393 39.6212 36.5524C36.3123 33.0997 35.1973 28.8556 34.8017 24.2879C34.442 20.1878 33.9385 16.0517 32.7876 12.0594C31.9604 9.14613 30.7735 6.37672 28.2199 4.47051C25.9899 2.81606 23.4363 2.60026 20.7748 2.6722C16.7466 2.7801 13.8693 4.61437 11.9991 8.17503C10.1288 11.7357 9.5174 15.656 8.97791 19.5763C8.58228 22.5256 8.25858 25.4748 7.82699 28.3881C7.35942 31.5891 5.66901 34.1427 3.61893 36.5524C2.46801 37.9191 2.57591 38.2788 4.26633 38.8902C4.80582 39.106 5.38128 39.2139 5.95674 39.3578C10.9201 40.4727 15.9913 40.5087 21.0985 40.4008ZM21.6021 49.86C25.1627 49.86 28.2558 47.702 29.2988 44.3931C29.7304 43.0623 29.6225 42.8825 28.2558 42.9185C26.2777 42.9544 24.2995 43.0983 22.3574 43.1343C19.8757 43.2062 17.43 43.0983 14.9483 42.9185C13.5816 42.8465 13.4737 43.0623 13.9053 44.3931C14.9843 47.702 18.0414 49.86 21.6021 49.86Z" fill="black"/>
</svg>
