<svg width="275" height="55" viewBox="0 0 275 55" fill="none" xmlns="http://www.w3.org/2000/svg">
<path d="M27.5 40.1491L37.0104 45.9012C38.7521 46.9553 40.8833 45.397 40.425 43.4262L37.9042 32.6095L46.3146 25.322C47.85 23.9928 47.025 21.472 45.0083 21.3116L33.9396 20.372L29.6083 10.1512C28.8292 8.29491 26.1708 8.29491 25.3916 10.1512L21.0604 20.3491L9.99165 21.2887C7.97498 21.4491 7.14998 23.9699 8.6854 25.2991L17.0958 32.5866L14.575 43.4032C14.1167 45.3741 16.2479 46.9324 17.9896 45.8782L27.5 40.1491Z" fill="#F4DC16"/>
<path d="M192.5 40.1491L202.01 45.9012C203.752 46.9553 205.883 45.397 205.425 43.4262L202.904 32.6095L211.315 25.322C212.85 23.9928 212.025 21.472 210.008 21.3116L198.94 20.372L194.608 10.1512C193.829 8.29491 191.171 8.29491 190.392 10.1512L186.06 20.3491L174.992 21.2887C172.975 21.4491 172.15 23.9699 173.685 25.2991L182.096 32.5866L179.575 43.4032C179.117 45.3741 181.248 46.9324 182.99 45.8782L192.5 40.1491Z" fill="#F4DC16"/>
<path d="M137.5 40.1491L147.01 45.9012C148.752 46.9553 150.883 45.397 150.425 43.4262L147.904 32.6095L156.315 25.322C157.85 23.9928 157.025 21.472 155.008 21.3116L143.94 20.372L139.608 10.1512C138.829 8.29491 136.171 8.29491 135.392 10.1512L131.06 20.3491L119.992 21.2887C117.975 21.4491 117.15 23.9699 118.685 25.2991L127.096 32.5866L124.575 43.4032C124.117 45.3741 126.248 46.9324 127.99 45.8782L137.5 40.1491Z" fill="#F4DC16"/>
<path d="M82.5 40.1491L92.0104 45.9012C93.7521 46.9553 95.8833 45.397 95.425 43.4262L92.9042 32.6095L101.315 25.322C102.85 23.9928 102.025 21.472 100.008 21.3116L88.9396 20.372L84.6083 10.1512C83.8292 8.29491 81.1708 8.29491 80.3916 10.1512L76.0604 20.3491L64.9917 21.2887C62.975 21.4491 62.15 23.9699 63.6854 25.2991L72.0958 32.5866L69.575 43.4032C69.1167 45.3741 71.2479 46.9324 72.9896 45.8782L82.5 40.1491Z" fill="#F4DC16"/>
<path d="M247.5 40.1491L257.01 45.9012C258.752 46.9553 260.883 45.397 260.425 43.4262L257.904 32.6095L266.315 25.322C267.85 23.9928 267.025 21.472 265.008 21.3116L253.94 20.372L249.608 10.1512C248.829 8.29491 246.171 8.29491 245.392 10.1512L241.06 20.3491L229.992 21.2887C227.975 21.4491 227.15 23.9699 228.685 25.2991L237.096 32.5866L234.575 43.4032C234.117 45.3741 236.248 46.9324 237.99 45.8782L247.5 40.1491Z" fill="#F4DC16"/>
</svg>
