<svg width="216" height="123" viewBox="0 0 216 123" fill="none" xmlns="http://www.w3.org/2000/svg">
<path d="M196.948 48.9187C196.307 48.2774 195.564 49.3574 195.007 49.8131C192.021 52.1756 189.118 54.6056 186.114 56.9512C185.203 57.6599 184.258 58.4193 182.942 58.6218C182.891 57.6599 183.465 57.0693 183.87 56.4449C185.237 54.3187 186.874 52.3612 188.73 50.5893C189.472 49.8806 189.658 49.1887 189.169 48.2774C188.106 46.3706 186.621 46.0837 184.832 47.5349C182.419 49.4924 180.107 51.5681 177.491 53.3231C174.724 55.1793 172.024 57.1199 168.868 58.6556C168.885 58.3518 168.834 58.1831 168.902 58.0818C172.766 52.0406 177.812 47.1637 184.984 44.4299C185.591 44.1937 186.232 44.0924 186.874 43.9406C188.561 43.5524 189.742 44.5649 189.607 46.3031C189.574 46.7418 189.337 47.3662 189.894 47.5012C190.569 47.6699 190.721 46.9443 190.924 46.5393C191.666 45.0037 190.907 43.1643 189.236 42.4556C187.042 41.5274 184.764 41.6287 182.503 42.1349C176.614 43.4512 172.024 46.7249 167.754 50.5049C164.886 53.0531 161.966 55.5674 158.709 57.7106C158.169 58.0649 157.528 58.8749 156.937 58.4024C156.313 57.8962 157.174 57.2212 157.477 56.6812C162.759 47.4337 169.138 38.8612 176.259 30.7274C177.474 29.3437 178.723 27.8756 180.748 27.3356C181.406 27.1668 181.389 26.7449 181.102 26.2556C180.377 24.9731 177.525 24.0787 176.057 24.6862C174.201 25.4624 172.935 26.8799 171.686 28.2637C166.522 33.8831 162.202 40.0593 157.899 46.2524C156.87 47.7206 156.06 49.3406 154.592 50.5387C151.588 52.9687 148.77 55.5674 145.496 57.6937C144.922 58.0649 144.281 59.0099 143.623 58.4699C143.1 58.0143 143.893 57.1874 144.231 56.5799C149.496 47.5518 155.722 39.1143 162.675 31.1324C164.008 29.5968 165.274 27.8587 167.569 27.2681C168.193 27.0993 168.092 26.5931 167.805 26.1374C166.877 24.7199 163.806 24.0112 162.27 24.9224C160.65 25.8843 159.351 27.2006 158.152 28.5674C153.124 34.2881 148.635 40.3462 144.484 46.6237C143.269 48.4799 141.936 50.2518 140.113 51.6862C137.869 53.4412 135.742 55.3312 133.346 56.9343C132.418 57.5587 131.541 58.2674 130.056 58.7231C131.827 55.3987 133.785 52.5806 135.962 49.8974C137.025 48.5812 138.071 47.1806 139.911 46.6237C140.299 46.5056 140.586 46.1512 140.451 45.7968C139.944 44.5143 138.949 43.5693 137.666 42.9618C136.637 42.4724 135.827 43.0799 135.051 43.7381C132.958 45.5437 131.321 47.6868 129.701 49.8299C127.086 53.3062 123.373 55.6181 119.812 58.1156C119.475 58.3518 118.952 58.8412 118.53 58.4531C118.091 58.0649 118.614 57.6093 118.851 57.2549C121.314 53.6268 123.795 50.0156 126.782 46.7081C128.064 45.2906 128.014 44.6831 126.832 43.1137C125.854 41.7974 124.689 41.9493 123.407 42.5231C122.867 42.7593 122.31 42.9956 121.821 43.3162C117.619 46.0499 113.518 48.9018 109.738 52.1081C109.451 52.3443 109.232 52.7156 108.692 52.6987C110.059 50.2349 113.113 46.9443 115.239 45.6281C115.577 45.4256 115.914 45.2062 115.847 44.8181C115.611 43.5187 114.649 42.6918 113.484 42.0843C112.607 41.6287 111.712 41.7806 110.902 42.4049C109.941 43.1643 109.063 43.9912 108.337 44.9362C104.237 50.3362 98.955 54.5718 93.15 58.3181C92.7787 58.5543 92.4412 58.9256 91.8506 58.6387C93.3693 55.5337 95.5462 52.9012 98.01 50.4543C98.7862 49.6949 98.8031 49.0031 98.28 48.1424C97.1831 46.3706 95.8668 46.1006 94.1625 47.4843C91.0406 49.9987 87.9693 52.5806 84.5268 54.7574C82.4343 56.0737 80.46 57.5418 77.7768 58.8243C78.705 56.8668 79.7512 55.5506 80.8312 54.2512C84.7631 49.6106 89.3362 45.7462 95.6812 44.0587C97.7062 43.5187 98.7862 44.2612 98.8537 46.2356C98.8706 46.6743 98.5837 47.2481 99.2756 47.5349C101.064 45.3243 100.558 43.3668 97.9593 42.2699C96.1706 41.5106 94.23 41.5612 92.4918 41.9662C83.8856 43.9406 77.5237 48.7331 73.0181 55.7024C72.2925 56.8162 72.09 58.0649 72.2756 59.3474C72.6637 62.1993 75.2287 63.3637 77.8106 61.8281C79.3631 60.8999 80.8144 59.8031 82.3837 58.8918C84.1725 57.8287 85.4887 56.1918 87.6994 55.1287C87.2269 56.3099 86.8725 57.2043 86.5181 58.0987C85.8262 59.8199 86.0962 60.8831 87.4969 62.0137C88.8468 63.1106 90.2475 62.8406 91.5806 62.0474C93.15 61.1362 94.6856 60.1743 96.0693 59.0099C97.4025 57.8793 98.7356 56.7487 100.069 55.6349C99.8662 56.7318 99.3768 57.6262 99.0562 58.5712C98.3981 60.4949 99.0393 62.2668 100.659 63.0599C101.587 63.5156 102.414 63.5493 102.516 62.3174C102.617 61.2374 103.309 60.4612 104.017 59.7018C106.127 57.4574 108.439 55.3818 110.869 53.4243C113.484 51.3149 116.151 49.2393 119.323 47.8724C118.311 49.1887 117.264 50.4712 116.319 51.8212C115.054 53.6437 113.788 55.4662 112.944 57.5081C112.202 59.2968 112.708 60.9843 114.244 62.1318C115.729 63.2624 117.028 62.4187 118.311 61.7774C118.986 61.4568 119.593 61.0181 120.201 60.5793C121.753 59.4318 123.289 58.2506 125.027 56.9343C124.807 57.5756 124.689 57.9974 124.521 58.4193C123.913 59.9043 124.099 61.1699 125.55 62.1824C126.967 63.1781 128.351 62.8406 129.667 62.0812C130.916 61.3724 132.165 60.6299 133.262 59.7018C135.084 58.1662 136.941 56.6643 139.05 54.9431C138.729 56.5462 137.919 57.6093 137.734 58.8749C137.497 60.5456 138.527 61.5412 139.776 62.4018C140.906 63.1781 142.054 62.7899 143.134 62.1487C144.939 61.0856 146.542 59.8031 148.095 58.4531C149.361 57.3562 150.694 56.3099 151.993 55.2299C152.01 56.0399 151.774 56.6474 151.504 57.2381C150.491 59.4318 150.829 60.9168 152.668 62.1993C154.035 63.1612 155.284 62.9081 157.393 61.5243C159.334 60.2587 160.836 58.4868 163.114 57.2381C163.114 58.1156 163.012 58.8243 163.131 59.4993C163.637 62.3681 165.881 63.3637 168.547 61.8787C171.163 60.4106 173.593 58.7062 175.905 56.8499C176.647 56.2593 177.373 55.6181 178.487 55.1118C177.846 56.7487 176.968 58.0143 176.951 59.5331C176.917 61.9124 179.381 63.3974 181.693 62.3681C183.431 61.5918 184.967 60.5624 186.401 59.3812C189.726 56.6812 192.881 53.8293 195.885 50.8256C196.442 50.2518 197.623 49.5937 196.948 48.9187Z" fill="white"/>
<path d="M99.3937 25.7831C103.106 23.2856 106.937 20.94 111.24 19.3538C112.202 18.9994 113.349 18.51 114.277 19.1175C115.189 19.7081 114.21 20.5856 114.193 21.3281C114.176 21.7331 114.041 22.1888 114.497 22.4081C115.071 22.695 115.442 22.2563 115.729 21.9019C116.556 20.8894 117.214 19.7925 117.517 18.5438C118.209 15.6244 115.678 13.3969 112.573 14.2406C108.979 15.2194 105.654 16.7381 102.532 18.6281C95.85 22.6613 89.8762 27.4706 84.1556 32.5669C77.22 38.7431 70.8581 45.375 64.6819 52.1925C61.5431 55.6519 58.5731 59.2125 55.5187 62.7394C58.9781 55.4663 63.2644 48.6825 66.6394 41.4938C68.9175 36.6338 71.3644 31.7906 71.6512 26.3569C71.9212 21.3113 68.8669 18.3581 63.3487 18.1725C58.6237 18.0038 54.2362 19.2019 49.9837 20.805C39.7744 24.6525 30.9656 30.4406 23.22 37.5956C20.5031 40.0931 18.0394 42.8775 16.6894 46.2863C16.0481 47.9063 15.8625 49.5769 17.2969 50.9606C18.6806 52.2938 20.4525 52.0575 22.1906 51.7031C22.545 51.6356 22.8656 51.4331 23.22 51.315C23.76 51.1463 24.3675 50.9944 24.3844 50.37C24.4012 49.6781 23.7431 49.6106 23.1862 49.5431C21.8193 49.3575 21.7856 48.5644 22.2244 47.6531C22.5281 47.0288 22.95 46.455 23.4056 45.915C27.5231 40.8694 32.3494 36.4144 37.5975 32.3644C42.4237 28.6519 47.52 25.2938 53.2406 22.83C56.5312 21.3956 59.94 20.4338 63.6356 20.67C66.2175 20.8388 67.3987 22.1381 66.8587 24.4163C66.5381 25.8 66.1669 27.2175 65.61 28.5338C62.6737 35.3344 59.13 41.8819 55.7212 48.48C52.4812 54.7744 49.1062 61.0181 46.4737 67.5656C45.4612 70.0631 44.4656 72.6113 44.2969 75.3281C44.2125 76.6275 44.9887 77.5219 46.1531 78.0788C47.3681 78.6525 48.5662 78.4163 49.68 77.7244C50.0512 77.505 50.5912 77.1 49.9837 76.8638C48.4312 76.2562 49.3425 75.5475 49.7475 74.8725C50.4394 73.725 51.1481 72.5775 51.9244 71.4806C56.8181 64.5619 62.4544 58.1831 68.5125 52.1081C78.0469 42.5231 87.9862 33.4106 99.3937 25.7831Z" fill="white"/>
<path d="M70.0988 68.2575C69.4406 67.6669 68.5463 67.3631 67.6688 67.3631C65.61 67.3631 64.0406 69.0844 64.0406 71.1263C64.0406 73.1344 65.5931 74.8556 67.6519 74.8556C68.5463 74.8556 69.4238 74.5181 70.0988 73.9106V75.2606C69.39 75.6825 68.4956 75.9019 67.6856 75.9019C65.07 75.9019 62.8931 73.8094 62.8931 71.16C62.8931 68.4431 65.07 66.3169 67.7869 66.3169C68.5969 66.3169 69.4069 66.5194 70.0988 66.9413V68.2575Z" fill="white"/>
<path d="M83.4468 75.6993H82.35V65.1187H83.4468V75.6993Z" fill="white"/>
<path d="M96.6431 73.0163C96.66 73.9951 97.3181 74.9063 98.3644 74.9063C99.2081 74.9063 99.6638 74.4845 100.069 73.7926L100.997 74.3157C100.457 75.3113 99.4613 75.8682 98.3475 75.8682C96.6094 75.8682 95.5463 74.552 95.5463 72.8645C95.5463 71.1095 96.4913 69.7932 98.3306 69.7932C100.153 69.7932 100.997 71.1263 100.997 72.8307V72.9995H96.6431V73.0163ZM99.9 72.1895C99.765 71.3288 99.2081 70.7551 98.3306 70.7551C97.47 70.7551 96.8456 71.3626 96.7106 72.1895H99.9Z" fill="white"/>
<path d="M118.26 75.6994H117.163V74.805H117.146C116.707 75.4463 116.032 75.885 115.206 75.885C113.467 75.885 112.472 74.4338 112.472 72.7969C112.472 71.2444 113.501 69.8101 115.172 69.8101C116.016 69.8101 116.691 70.2488 117.146 70.9238H117.163V69.9788H118.26V75.6994ZM117.214 72.8475C117.214 71.7338 116.539 70.8057 115.357 70.8057C114.227 70.8057 113.552 71.8013 113.552 72.8475C113.552 73.9275 114.193 74.9232 115.357 74.9232C116.556 74.9063 117.214 73.9613 117.214 72.8475Z" fill="white"/>
<path d="M131.743 70.7551H131.76C132.097 70.1476 132.789 69.8101 133.481 69.8101C135.084 69.8101 135.506 70.8901 135.506 72.2907V75.6994H134.409V72.4257C134.409 71.4469 134.274 70.7888 133.161 70.7888C131.743 70.7888 131.743 72.0376 131.743 73.0669V75.6826H130.646V69.9788H131.743V70.7551Z" fill="white"/>
<path d="M149.546 67.38C149.546 67.8019 149.209 68.1225 148.787 68.1225C148.365 68.1225 148.027 67.785 148.027 67.38C148.027 66.9581 148.365 66.6038 148.787 66.6038C149.209 66.6038 149.546 66.9581 149.546 67.38ZM149.344 75.6994H148.247V69.9956H149.344V75.6994Z" fill="white"/>
<path d="M163.164 70.7551H163.181C163.519 70.1476 164.211 69.8101 164.902 69.8101C166.506 69.8101 166.927 70.8901 166.927 72.2907V75.6994H165.831V72.4257C165.831 71.4469 165.696 70.7888 164.582 70.7888C163.164 70.7888 163.164 72.0376 163.164 73.0669V75.6826H162.067V69.9788H163.164V70.7551Z" fill="white"/>
<path d="M184.747 75.5813C184.747 77.5388 184.191 78.9563 181.963 78.9563C180.377 78.9563 179.229 77.9775 179.213 76.3744H180.309C180.309 77.4038 181.018 77.9775 182.014 77.9775C183.364 77.9775 183.651 77.0494 183.651 75.885V74.805H183.634C183.195 75.4463 182.503 75.885 181.693 75.885C179.938 75.885 178.959 74.4338 178.959 72.7969C178.959 71.2444 179.989 69.8101 181.643 69.8101C182.503 69.8101 183.178 70.2488 183.634 70.9576H183.651V69.9788H184.747V75.5813ZM183.718 72.8475C183.718 71.7338 183.043 70.8057 181.862 70.8057C180.731 70.8057 180.056 71.8013 180.056 72.8475C180.056 73.9275 180.697 74.9232 181.862 74.9232C183.06 74.9063 183.718 73.9613 183.718 72.8475Z" fill="white"/>
<path d="M145.209 31.5036C145.884 31.4698 147.876 31.4023 148.871 31.5373L145.732 31.8748L145.716 31.8579C145.547 31.7229 145.378 31.6048 145.209 31.5036Z" fill="#FBF5B5"/>
<path d="M148.584 31.6892C147.302 32.0773 145.749 32.4992 145.277 32.533C145.496 32.2967 145.648 32.0942 145.716 31.993L148.584 31.6892Z" fill="#FBF5B5"/>
<path d="M141.632 30.4404C142.02 29.276 141.851 28.196 141.649 27.4873C142.037 26.9979 142.239 23.606 142.256 23.201V23.066L143.1 20.0454C144.636 23.6229 144.197 26.306 143.556 27.926C142.948 29.4279 142.071 30.3223 141.801 30.5754C141.767 30.5248 141.682 30.4742 141.632 30.4404Z" fill="#FBF5B5"/>
<path d="M142.003 33.8829C141.919 33.8492 141.885 33.731 141.868 33.6467C143.235 33.866 144.214 33.3936 144.787 32.9717C144.922 32.8704 145.041 32.7692 145.142 32.6848C145.665 32.7523 148.686 31.8242 149.327 31.6217L152.466 31.2842C147.926 35.8404 143.37 34.4567 142.071 33.9167C142.037 33.8829 142.003 33.8829 142.003 33.8829Z" fill="#FBF5B5"/>
<path d="M141.598 27.3187C141.446 26.88 141.311 26.6268 141.294 26.6268V26.61L142.087 23.7412C141.986 25.125 141.801 26.8462 141.598 27.3187Z" fill="#FBF5B5"/>
<path d="M141.716 31.1323C141.733 30.8961 141.784 30.8117 141.801 30.7948C144.838 28.7867 147.606 29.0229 149.394 29.5629C150.981 30.0523 152.094 30.8623 152.466 31.1323L149.31 31.4698C148.483 31.1829 145.277 31.3517 144.99 31.3517C144.18 30.9129 143.437 30.8454 142.897 30.8623C142.324 30.9129 141.902 31.0479 141.716 31.1323Z" fill="#FBF5B5"/>
<path d="M141.885 37.4437C142.037 36.7518 142.071 35.6718 141.446 34.4568C141.497 34.44 141.547 34.44 141.581 34.4231C141.767 34.5918 142.897 35.6043 143.674 37.3087C144.45 38.9962 145.024 41.7131 143.404 45.1387L142.374 41.8143C142.391 41.6793 142.425 40.7681 141.767 37.8487H141.75C141.817 37.7306 141.851 37.5956 141.885 37.4437Z" fill="#FBF5B5"/>
<path d="M141.277 38.6925L141.986 40.9369L140.653 38.1863C140.839 38.355 141.041 38.5238 141.277 38.6925Z" fill="#FBF5B5"/>
<path d="M142.239 41.3419L141.413 38.6587C141.463 38.5912 141.581 38.3887 141.699 38.0681C142.087 39.8231 142.206 40.8187 142.239 41.3419Z" fill="#FBF5B5"/>
<path d="M140.687 26.9136C140.889 26.323 141.446 24.7199 141.936 23.7749L141.142 26.6268C140.974 26.7111 140.839 26.8124 140.687 26.9136Z" fill="#FBF5B5"/>
<path d="M138.645 29.6305C138.004 26.458 139.252 23.9942 140.417 22.4755C141.446 21.1423 142.577 20.2986 142.982 20.0117L142.088 23.2348C141.463 24.1292 140.586 26.7955 140.501 27.0655C139.371 28.0442 139.033 29.4617 138.966 29.7655C138.864 29.7655 138.729 29.698 138.645 29.6305Z" fill="#FBF5B5"/>
<path d="M138.679 38.7598C138.341 37.0048 138.712 35.6886 138.763 35.5029C138.831 35.4692 138.881 35.4186 138.932 35.3848C138.949 35.3848 138.949 35.3679 138.966 35.3511C138.966 35.3679 138.966 35.3848 138.982 35.4017C139.05 35.7898 139.252 36.8529 140.535 38.0511L140.467 38.0848L142.256 41.8142L143.286 45.1217C140.062 42.9617 138.999 40.4811 138.679 38.7598Z" fill="#FBF5B5"/>
<path d="M138.426 31.9592C138.577 31.9761 138.611 31.9592 138.712 31.8749L138.746 31.858V31.8242C138.746 31.7736 138.78 31.6724 138.814 31.6386C138.814 31.6386 138.831 31.6217 138.864 31.6386C138.932 31.6555 138.966 31.6892 138.999 31.7061C139.05 31.7399 139.117 31.7905 139.219 31.7399C139.236 31.723 139.269 31.7061 139.286 31.7061C139.337 31.6724 139.404 31.6386 139.438 31.6555C139.455 31.6555 139.455 31.6724 139.472 31.6892V31.7061C139.539 31.8411 139.59 31.9592 139.776 31.9424C139.826 31.9424 139.86 31.9592 139.877 31.9761C139.894 31.993 139.894 32.0267 139.894 32.0436C139.86 32.1449 139.86 32.2799 140.029 32.4149C140.062 32.4317 140.079 32.4655 140.096 32.4992C140.096 32.533 140.096 32.533 140.096 32.533C140.096 32.533 140.096 32.533 140.079 32.5499C139.927 32.6511 139.894 32.7692 139.978 32.9042C139.995 32.9211 140.012 32.9717 139.995 32.9886C139.995 33.0055 139.961 33.0224 139.961 33.0224C139.792 33.0224 139.691 33.0392 139.674 33.1236C139.641 33.2417 139.607 33.3092 139.59 33.3261C139.573 33.3261 139.556 33.3092 139.539 33.3092C139.421 33.2586 139.286 33.1911 139.219 33.2417C139.202 33.2417 139.202 33.2586 139.185 33.2586C139.134 33.3092 139.067 33.343 139.016 33.343C138.982 33.343 138.966 33.3092 138.932 33.2586C138.831 33.0561 138.662 33.0224 138.561 33.0392C138.527 33.0224 138.476 32.9886 138.493 32.9211C138.527 32.7524 138.493 32.6849 138.409 32.6342C138.358 32.6005 138.291 32.533 138.274 32.4992C138.291 32.4824 138.307 32.4824 138.307 32.4655C138.341 32.4486 138.375 32.4149 138.392 32.3811C138.442 32.2799 138.459 32.1786 138.409 32.0942C138.392 32.0436 138.375 31.993 138.392 31.9761C138.409 31.9592 138.426 31.9592 138.426 31.9592Z" fill="#231F20"/>
<path d="M138.274 29.6138L138.291 29.6308H138.274V29.6138Z" fill="#FBF5B5"/>
<path d="M138.307 32.4487C138.291 32.4656 138.274 32.4656 138.274 32.4825C138.291 32.5162 138.358 32.5837 138.409 32.6174C138.493 32.6849 138.527 32.7356 138.493 32.9043C138.476 32.9718 138.527 33.0056 138.561 33.0224C138.662 33.0056 138.831 33.0393 138.932 33.2418C138.966 33.2925 138.982 33.3262 139.016 33.3262C139.067 33.3431 139.134 33.2925 139.185 33.2418C139.202 33.2418 139.202 33.2249 139.219 33.2249C139.303 33.1743 139.438 33.2418 139.539 33.2924C139.556 33.3093 139.573 33.3093 139.59 33.3093C139.607 33.2924 139.641 33.2081 139.674 33.1068C139.691 33.0393 139.792 33.0056 139.961 33.0056C139.978 33.0056 139.995 32.9887 139.995 32.9718C140.012 32.9549 139.995 32.9043 139.978 32.8875C139.894 32.7525 139.927 32.6343 140.079 32.5331C140.079 32.5331 140.096 32.5331 140.096 32.5162C140.096 32.5162 140.096 32.4993 140.096 32.4825C140.096 32.4487 140.062 32.415 140.029 32.3981C139.86 32.28 139.877 32.1449 139.894 32.0268C139.911 31.9931 139.894 31.9762 139.877 31.9593C139.86 31.9256 139.809 31.9256 139.776 31.9256C139.59 31.9424 139.539 31.8243 139.472 31.6893V31.6724C139.472 31.6556 139.455 31.6387 139.438 31.6387C139.404 31.6218 139.337 31.6724 139.286 31.6893C139.269 31.7062 139.236 31.7231 139.219 31.7231C139.117 31.7737 139.05 31.7231 138.999 31.6893C138.966 31.6724 138.932 31.6387 138.864 31.6218C138.831 31.605 138.831 31.6218 138.814 31.6218C138.78 31.6556 138.763 31.7568 138.746 31.8075V31.8412L138.712 31.875C138.611 31.9593 138.577 31.9762 138.426 31.9593C138.426 31.9593 138.409 31.9593 138.392 31.9593C138.375 31.9762 138.392 32.0268 138.409 32.0775C138.442 32.1618 138.442 32.2631 138.392 32.3643C138.375 32.3981 138.341 32.4149 138.307 32.4487ZM138.324 32.7356C138.324 32.7356 138.156 32.6006 138.139 32.4825C138.139 32.4487 138.156 32.415 138.172 32.3981C138.206 32.3643 138.223 32.3475 138.24 32.3306C138.274 32.3137 138.274 32.2968 138.291 32.2799C138.324 32.2293 138.324 32.1618 138.307 32.1281C138.274 32.0606 138.257 31.9425 138.307 31.875C138.324 31.8412 138.375 31.8075 138.459 31.8075C138.561 31.8243 138.561 31.8074 138.628 31.7737C138.628 31.7062 138.662 31.5712 138.746 31.5206C138.78 31.5037 138.831 31.4699 138.915 31.5037C138.999 31.5374 139.05 31.5712 139.101 31.5881C139.151 31.6218 139.151 31.6218 139.168 31.6049C139.185 31.5881 139.202 31.5881 139.219 31.5712C139.303 31.5206 139.387 31.4699 139.489 31.5037C139.539 31.5206 139.573 31.5543 139.59 31.6049V31.6218C139.657 31.7568 139.674 31.7906 139.759 31.7737C139.86 31.7737 139.927 31.7906 139.978 31.8581C140.029 31.9087 140.046 31.9762 140.029 32.0437C139.995 32.1281 140.012 32.1956 140.096 32.2631C140.197 32.3306 140.214 32.4318 140.214 32.4656C140.214 32.5162 140.197 32.5837 140.164 32.6006C140.164 32.6006 140.147 32.6174 140.13 32.6174C140.062 32.6681 140.029 32.7018 140.079 32.7862C140.13 32.8537 140.13 32.9212 140.113 32.9887C140.079 33.0731 139.995 33.1068 139.978 33.1068H139.961H139.944C139.877 33.1068 139.809 33.1068 139.776 33.1068C139.725 33.2756 139.674 33.3768 139.607 33.3937C139.59 33.4106 139.556 33.4106 139.539 33.4106C139.522 33.4106 139.489 33.3937 139.438 33.3599C139.387 33.3431 139.269 33.2756 139.236 33.2924C139.185 33.3431 139.067 33.4274 138.949 33.3937C138.864 33.3768 138.814 33.3262 138.763 33.2249C138.679 33.0562 138.544 33.09 138.527 33.09H138.51H138.493C138.426 33.0731 138.291 32.9887 138.324 32.8031C138.375 32.7693 138.358 32.7525 138.324 32.7356Z" fill="white"/>
<path d="M138.223 35.2837C138.24 35.3174 138.257 35.3343 138.291 35.3512C138.257 35.3343 138.24 35.3174 138.223 35.2837Z" fill="#FBF5B5"/>
<path d="M138.561 35.5874C136.974 38.743 134.561 40.0255 132.806 40.5318C131.237 40.9874 129.904 40.9537 129.448 40.9031C129.802 40.6331 130.764 39.8737 131.895 38.9624L131.962 38.9287C132.097 38.8612 135.084 37.3424 135.591 36.6168C136.08 36.5493 136.687 36.4143 137.261 36.1274C137.599 35.9587 137.919 35.7393 138.189 35.4355C138.24 35.4862 138.307 35.5199 138.375 35.5537C138.442 35.6043 138.493 35.6043 138.561 35.5874Z" fill="#FBF5B5"/>
<path d="M137.717 29.8498C137.076 29.2761 136.063 29.1411 135.304 29.1242C135.034 28.9723 132.502 27.5548 131.473 27.2848L128.706 25.4792C132.131 25.0404 134.494 26.1373 135.861 27.1667C137.126 28.1117 137.818 29.1579 138.004 29.4786C137.987 29.4786 137.953 29.4954 137.936 29.5123C137.835 29.5798 137.767 29.7317 137.717 29.8498Z" fill="#FBF5B5"/>
<path d="M137.548 30.5419C137.7 30.4744 137.767 30.2719 137.801 30.1369V30.12L137.835 30.0019C137.852 29.9175 137.936 29.6981 138.037 29.6306C138.054 29.6138 138.088 29.6138 138.105 29.6138C138.105 29.6138 138.088 29.6138 138.088 29.6306C137.97 29.6981 137.953 29.9175 137.936 30.0019L138.004 30.12C138.004 30.255 137.801 30.4575 137.666 30.5419C137.632 30.525 137.565 30.525 137.548 30.5419Z" fill="#FBF5B5"/>
<path d="M137.953 34.828C137.886 34.6762 137.852 34.6255 137.751 34.5918C137.852 34.6087 137.886 34.6762 137.953 34.828C137.987 34.8618 138.004 34.9124 138.021 34.963C138.088 35.0812 138.139 35.1993 138.206 35.2837C138.139 35.1993 138.071 35.0812 138.021 34.963C138.004 34.9124 137.97 34.8618 137.953 34.828Z" fill="#FBF5B5"/>
<path d="M137.751 34.5919C137.734 34.5919 137.734 34.5919 137.717 34.5919C137.717 34.5748 137.734 34.5748 137.751 34.5919Z" fill="#FBF5B5"/>
<path d="M138.291 32.128C138.307 32.1786 138.307 32.2292 138.274 32.2798C138.257 32.2967 138.257 32.3136 138.223 32.3305C138.206 32.3473 138.172 32.3642 138.156 32.398C138.139 32.4148 138.122 32.4486 138.122 32.4823C138.139 32.6005 138.307 32.7355 138.307 32.7355C138.341 32.7692 138.358 32.7692 138.341 32.8873C138.307 33.0561 138.442 33.1405 138.51 33.1742H138.527H138.544C138.561 33.1742 138.696 33.1405 138.78 33.3092C138.831 33.4105 138.881 33.4611 138.966 33.478C139.084 33.4948 139.185 33.4273 139.252 33.3767C139.286 33.3767 139.404 33.4273 139.455 33.4442C139.506 33.4611 139.539 33.478 139.556 33.4948C139.573 33.4948 139.607 33.4948 139.624 33.478C139.674 33.4442 139.725 33.3598 139.792 33.1911C139.826 33.1911 139.894 33.1742 139.961 33.1911H139.978H139.995C140.012 33.1911 140.096 33.1573 140.13 33.073C140.147 33.0055 140.147 32.938 140.096 32.8705C140.046 32.7861 140.079 32.7523 140.147 32.7017C140.164 32.7017 140.164 32.6848 140.181 32.6848C140.214 32.6511 140.231 32.6005 140.231 32.5498C140.231 32.4992 140.214 32.4148 140.113 32.3473C140.029 32.2798 140.012 32.2292 140.046 32.128C140.062 32.0605 140.046 31.993 139.995 31.9423C139.944 31.8748 139.86 31.858 139.776 31.858C139.674 31.858 139.674 31.8411 139.607 31.7061V31.6892C139.573 31.6386 139.539 31.6048 139.506 31.588C139.421 31.5542 139.32 31.6217 139.236 31.6555C139.219 31.6723 139.202 31.6723 139.185 31.6892C139.151 31.7061 139.151 31.7061 139.117 31.6723C139.084 31.6386 139.033 31.6048 138.932 31.588C138.864 31.5711 138.797 31.588 138.763 31.6048C138.679 31.6723 138.662 31.8073 138.645 31.858C138.577 31.9086 138.577 31.9086 138.476 31.8917C138.392 31.8748 138.341 31.9255 138.324 31.9592C138.24 31.9592 138.257 32.0605 138.291 32.128ZM137.599 34.0517C137.447 34.0011 137.177 33.8323 137.244 33.478C137.312 33.1236 137.244 33.073 137.143 33.0055C137.143 33.0055 136.738 32.7017 136.721 32.4655C136.721 32.4148 136.738 32.3642 136.772 32.3305C136.822 32.263 136.873 32.2292 136.924 32.1955C136.974 32.1448 137.025 32.1111 137.059 32.0436C137.16 31.8748 137.16 31.7061 137.092 31.5711C137.025 31.4192 136.974 31.1998 137.076 31.048C137.109 30.9805 137.194 30.913 137.362 30.9298C137.649 30.9636 137.683 30.9298 137.886 30.7948C137.886 30.6767 137.936 30.3392 138.139 30.2042C138.223 30.1367 138.324 30.1198 138.442 30.1536C138.645 30.2211 138.763 30.3055 138.847 30.373C138.966 30.4573 138.999 30.4911 139.134 30.4236C139.185 30.4067 139.236 30.373 139.286 30.3392C139.472 30.238 139.674 30.1198 139.843 30.1705C139.927 30.2042 139.995 30.2717 140.046 30.373L140.062 30.4236C140.214 30.7611 140.282 30.8961 140.586 30.8792C140.788 30.8623 140.957 30.9298 141.058 31.048C141.142 31.1492 141.176 31.3011 141.142 31.4361C141.075 31.6723 141.092 31.8748 141.362 32.0773C141.581 32.2292 141.615 32.4148 141.632 32.4992C141.632 32.6173 141.598 32.7186 141.531 32.7692C141.514 32.7861 141.497 32.7861 141.48 32.803C141.311 32.9211 141.142 33.073 141.311 33.3598C141.396 33.5117 141.429 33.6467 141.379 33.7817C141.311 33.9505 141.126 34.018 141.109 34.018H141.092H141.075C140.822 34.0011 140.586 34.0348 140.569 34.0855C140.417 34.5748 140.299 34.7267 140.214 34.7773C140.164 34.7942 140.147 34.7942 140.113 34.7942C140.062 34.7773 139.978 34.7436 139.894 34.693C139.725 34.6086 139.371 34.4398 139.286 34.5242C139.168 34.6423 138.932 34.828 138.679 34.7773C138.527 34.7436 138.392 34.6255 138.307 34.4398C138.071 33.9336 137.649 34.0517 137.632 34.0517H137.616H137.599Z" fill="white"/>
<path d="M137.683 34.5749C137.666 34.5749 137.649 34.5749 137.632 34.5749C137.649 34.558 137.666 34.5749 137.683 34.5749Z" fill="#FBF5B5"/>
<path d="M136.569 33.2924C136.552 33.2755 136.536 33.2586 136.519 33.2249C136.536 33.2417 136.552 33.2586 136.569 33.2924C136.569 33.2755 136.569 33.2924 136.569 33.2924Z" fill="#FBF5B5"/>
<path d="M136.502 33.225C136.485 33.1913 136.451 33.1575 136.417 33.1406C136.738 33.3769 136.839 33.7819 136.772 33.9844C136.772 33.9844 136.687 34.2206 136.789 34.3894C136.856 34.4906 136.991 34.5412 137.177 34.5581C137.194 34.5581 137.194 34.5581 137.211 34.5581C137.194 34.5581 137.177 34.5581 137.16 34.5581C136.957 34.5581 136.806 34.4906 136.738 34.3894C136.637 34.2375 136.671 34.0013 136.671 33.9844C136.704 33.8831 136.721 33.7144 136.671 33.5456C136.671 33.495 136.654 33.4444 136.637 33.4106C136.637 33.4106 136.62 33.4106 136.62 33.4275C136.603 33.3769 136.586 33.3431 136.552 33.3094C136.552 33.2588 136.536 33.2419 136.502 33.225C136.519 33.225 136.519 33.225 136.502 33.225Z" fill="#FBF5B5"/>
<path d="M136.266 33.0393C136.283 33.0393 136.3 33.0564 136.3 33.0564C136.3 33.0564 136.283 33.0564 136.266 33.0393Z" fill="#FBF5B5"/>
<path d="M136.249 33.0225C136.249 33.0225 136.266 33.0225 136.266 33.0395C136.266 33.0395 136.249 33.0395 136.249 33.0225Z" fill="#FBF5B5"/>
<path d="M134.629 30.2211C135.202 31.453 135.962 32.0099 136.215 32.1786C136.164 32.2293 136.131 32.263 136.097 32.3136C136.012 32.3811 135.928 32.4486 135.861 32.4993C133.009 32.1618 131.186 30.3055 130.174 28.7868C129.262 27.4199 128.79 26.0868 128.655 25.6143L131.287 27.3186L131.355 27.3861C131.372 27.403 133.38 29.4786 134.629 30.2211Z" fill="#FBF5B5"/>
<path d="M135.962 32.8368C135.827 32.7356 135.759 32.6512 135.742 32.6174C135.827 32.6343 135.911 32.6343 135.979 32.6512C135.996 32.7187 136.012 32.8199 136.114 32.9212C136.097 32.9212 136.097 32.9212 136.08 32.9212C136.046 32.8874 135.996 32.8706 135.962 32.8368Z" fill="#FBF5B5"/>
<path d="M132.384 38.4055C132.975 37.6798 134.055 36.3805 134.73 35.908C134.679 36.1273 134.646 36.3636 134.646 36.5998C133.954 37.1567 133.161 37.798 132.384 38.4055Z" fill="#FBF5B5"/>
<path d="M134.527 30.0018C133.633 29.4112 132.435 28.2806 131.844 27.6899L134.291 29.2762C134.359 29.5293 134.443 29.7824 134.527 30.0018Z" fill="#FBF5B5"/>
<path d="M131.962 27.5886C132.941 27.9767 134.443 28.8036 135.034 29.1074C134.713 29.1242 134.477 29.1411 134.376 29.158L131.962 27.5886Z" fill="#FBF5B5"/>
<path d="M135.388 36.6675C134.899 37.1906 133.313 38.0681 132.452 38.5406C133.228 37.9331 134.021 37.2919 134.764 36.7012C134.848 36.7012 135.084 36.6844 135.388 36.6675Z" fill="#FBF5B5"/>
<path d="M131.912 38.7768C130.933 39.5531 130.022 40.2787 129.381 40.785C130.191 37.14 131.996 35.2162 133.38 34.2543C134.781 33.2756 136.046 33.0562 136.249 33.0225C136.299 33.0731 136.367 33.1068 136.451 33.1575C136.468 33.1743 136.502 33.1912 136.519 33.2081C136.536 33.225 136.552 33.2418 136.569 33.2756C136.282 33.4781 135.169 34.3556 134.797 35.6887C133.92 36.2118 132.232 38.3718 131.912 38.7768Z" fill="#FBF5B5"/>
<path d="M145.209 31.5036C145.378 31.6049 145.547 31.723 145.716 31.858L145.732 31.8749L148.871 31.5374C147.876 31.3855 145.901 31.4699 145.209 31.5036ZM145.699 32.0099C145.631 32.1111 145.496 32.3136 145.26 32.5499C145.732 32.5161 147.302 32.0943 148.567 31.7061L145.699 32.0099ZM141.868 33.6468C141.885 33.7311 141.919 33.8493 142.003 33.883C142.02 33.883 142.037 33.8999 142.071 33.9168C143.37 34.4568 147.926 35.8405 152.466 31.2843L149.327 31.6218C148.686 31.8243 145.665 32.7524 145.142 32.6849C145.041 32.7861 144.922 32.8874 144.787 32.9718C144.197 33.3936 143.235 33.8493 141.868 33.6468ZM141.801 30.7949C141.784 30.8118 141.733 30.8961 141.716 31.1324C141.902 31.0649 142.324 30.913 142.881 30.8961C143.421 30.8624 144.163 30.9468 144.973 31.3855C145.277 31.3686 148.466 31.1999 149.293 31.5036L152.449 31.1661C152.094 30.8793 150.964 30.0693 149.377 29.5968C147.622 29.023 144.855 28.7868 141.801 30.7949ZM141.716 31.2843C141.699 31.3518 141.682 31.5543 141.902 31.723C142.155 31.9086 142.324 32.1449 142.374 32.2293L145.53 31.8918C143.691 30.4911 141.952 31.183 141.716 31.2843ZM141.885 33.1068C141.75 33.208 141.817 33.4105 141.834 33.4949C143.184 33.7143 144.129 33.2755 144.703 32.8536C145.125 32.5499 145.395 32.2124 145.53 32.0268L142.425 32.3643C142.391 32.7018 142.02 33.0055 141.885 33.1068ZM141.649 27.5043C141.851 28.213 142.02 29.2761 141.632 30.4574C141.682 30.4911 141.767 30.5418 141.801 30.6093C142.071 30.3561 142.965 29.4618 143.556 27.9599C144.197 26.3399 144.636 23.6568 143.1 20.0793L142.256 23.0999V23.2349C142.239 23.623 142.02 26.998 141.649 27.5043ZM141.294 26.6268C141.294 26.6268 141.446 26.8968 141.598 27.3186C141.801 26.8461 141.986 25.1249 142.087 23.7411L141.294 26.6268ZM141.598 34.423C141.547 34.4399 141.514 34.4568 141.463 34.4568C142.087 35.6886 142.037 36.7518 141.902 37.4436C141.868 37.5955 141.834 37.7305 141.784 37.8486H141.801C142.442 40.768 142.408 41.6961 142.408 41.8143L143.437 45.1386C145.041 41.713 144.484 38.9961 143.707 37.3086C142.914 35.6043 141.801 34.5749 141.598 34.423ZM141.412 38.6586L142.239 41.3418C142.206 40.8186 142.087 39.823 141.699 38.0849C141.581 38.3886 141.446 38.5911 141.412 38.6586ZM141.936 23.7749C141.446 24.7199 140.889 26.3399 140.687 26.9136C140.822 26.8124 140.974 26.7111 141.142 26.6268L141.936 23.7749ZM140.383 29.8499C140.518 30.2043 140.602 30.2549 140.94 30.2549C141.21 30.2549 141.412 30.3224 141.514 30.373C142.054 28.6855 141.446 27.2174 141.244 26.7955L140.383 29.8499ZM140.602 35.1993C140.552 35.3174 140.484 35.4018 140.4 35.4524L141.345 38.4899C141.598 38.0343 142.324 36.448 141.311 34.4905C141.277 34.4905 141.244 34.5074 141.21 34.5074C141.176 34.5074 141.159 34.5243 141.126 34.5243C140.856 34.558 140.771 34.7436 140.67 35.0474C140.653 35.0811 140.636 35.1486 140.602 35.1993ZM141.277 38.6924C141.041 38.5236 140.839 38.3549 140.653 38.1861L141.986 40.9368L141.277 38.6924ZM141.092 26.8293C139.624 27.7068 139.202 29.3943 139.117 29.7824C139.219 29.7655 139.404 29.7149 139.657 29.4955C139.776 29.3943 139.911 29.3605 140.029 29.3943C140.164 29.428 140.248 29.563 140.316 29.6643L141.092 26.8293ZM139.101 35.2836C139.101 35.3174 139.117 35.3511 139.117 35.4018C139.202 35.8236 139.438 37.0893 141.193 38.4561L140.265 35.4861C140.096 35.5199 139.877 35.4524 139.59 35.2836C139.387 35.1655 139.252 35.1993 139.101 35.2836ZM140.417 22.4924C139.252 24.0111 138.004 26.4749 138.645 29.6474C138.729 29.698 138.881 29.7824 138.966 29.7824C139.016 29.4786 139.354 28.0611 140.501 27.0824C140.586 26.8124 141.463 24.1461 142.087 23.2518L142.982 20.0286C142.577 20.2986 141.429 21.1593 140.417 22.4924ZM138.763 35.503C138.712 35.6886 138.341 37.0049 138.679 38.7599C138.999 40.4811 140.062 42.9618 143.286 45.1555L142.256 41.848L140.467 38.1186L140.535 38.0849C139.252 36.8699 139.05 35.8236 138.982 35.4355C138.982 35.4186 138.982 35.4018 138.966 35.3849C138.949 35.4018 138.932 35.4018 138.932 35.4186C138.881 35.4355 138.831 35.4693 138.763 35.503ZM137.683 30.0018C136.839 29.1749 135.135 29.2424 134.561 29.293L136.586 30.6093C136.721 30.508 136.957 30.4911 137.16 30.4574C137.295 30.4405 137.43 30.4236 137.497 30.3899C137.582 30.3393 137.666 30.1199 137.683 30.0018ZM134.932 36.5493C135.506 36.5324 137.16 36.3805 138.088 35.368C138.021 35.2836 137.953 35.1655 137.886 35.0305C137.852 34.9799 137.835 34.9293 137.818 34.8786C137.767 34.7774 137.751 34.7436 137.717 34.7268C137.666 34.7099 137.565 34.693 137.379 34.693C137.329 34.693 137.278 34.693 137.211 34.693C137.025 34.8618 136.097 35.6211 134.932 36.5493ZM136.485 30.7105L134.46 29.3943C135.034 31.2336 136.131 31.9593 136.35 32.0943C136.434 32.0436 136.637 31.8411 136.519 31.4699C136.367 31.0649 136.434 30.8118 136.485 30.7105ZM131.844 27.673C132.452 28.2805 133.65 29.4111 134.527 29.9849C134.443 29.7655 134.359 29.5293 134.274 29.2593L131.844 27.673ZM135.017 29.1243C134.443 28.8036 132.924 27.9936 131.946 27.6055L134.359 29.1749C134.46 29.158 134.696 29.1243 135.017 29.1243ZM132.384 38.4055C133.161 37.798 133.954 37.1568 134.662 36.5999C134.662 36.3636 134.696 36.1274 134.747 35.908C134.072 36.3805 132.975 37.6799 132.384 38.4055ZM132.452 38.5236C133.312 38.068 134.899 37.1736 135.388 36.6505C135.084 36.6843 134.848 36.6843 134.764 36.6843C134.038 37.2749 133.228 37.9161 132.452 38.5236ZM128.722 25.4793L131.49 27.2849C132.502 27.5549 135.034 28.9724 135.321 29.1243C136.08 29.1411 137.092 29.2761 137.734 29.8499C137.767 29.7318 137.852 29.5799 137.97 29.5124C137.987 29.4955 138.021 29.4955 138.037 29.4786C137.852 29.158 137.16 28.1118 135.894 27.1668C134.511 26.1543 132.165 25.0405 128.722 25.4793ZM135.591 36.6336C135.084 37.3593 132.081 38.878 131.962 38.9455L131.895 38.9793C130.764 39.8736 129.802 40.633 129.448 40.9199C129.904 40.9536 131.237 41.0043 132.806 40.5486C134.561 40.0255 136.974 38.743 138.561 35.6043C138.493 35.6211 138.426 35.6211 138.375 35.6043C138.307 35.5874 138.24 35.5536 138.189 35.4861C137.919 35.773 137.599 36.0093 137.261 36.178C136.687 36.448 136.063 36.583 135.591 36.6336ZM130.056 28.8374C128.908 27.133 128.469 25.4624 128.469 25.4455L128.452 25.3611L128.537 25.3443C130.123 25.1249 131.608 25.1924 132.975 25.5636C134.072 25.8674 135.067 26.3568 135.979 27.0318C137.362 28.0611 138.071 29.2086 138.189 29.428C138.291 29.428 138.409 29.4618 138.493 29.5124C138.24 28.1286 138.291 26.7786 138.696 25.4624C139.016 24.3824 139.556 23.3361 140.316 22.3574C141.598 20.6868 143.049 19.7755 143.066 19.7586L143.134 19.708L143.167 19.7755C143.893 21.4124 144.281 23.0155 144.315 24.5174C144.332 25.7324 144.129 26.8799 143.707 27.943C143.269 29.0568 142.661 29.8499 142.256 30.2886C143.454 29.5799 144.703 29.158 145.969 29.023C147.133 28.9049 148.297 29.0061 149.462 29.3605C151.436 29.968 152.685 31.0649 152.702 31.0649L152.752 31.1155L152.702 31.1661C151.672 32.2293 150.592 33.0393 149.462 33.613C148.281 34.2036 147.032 34.5411 145.749 34.6086C144.855 34.6424 143.488 34.5749 142.037 33.9674C142.003 33.9505 141.986 33.9505 141.986 33.9505H141.969C141.952 34.1193 141.868 34.2205 141.75 34.288C142.037 34.5411 143.1 35.5536 143.842 37.1736C144.349 38.2874 144.619 39.4518 144.619 40.6668C144.636 42.1686 144.264 43.7043 143.505 45.2736L143.556 45.4255L143.387 45.3243C141.885 44.3286 140.704 43.1811 139.877 41.9324C139.202 40.9199 138.763 39.8399 138.561 38.7261C138.341 37.5111 138.426 36.5155 138.527 35.9249C137.852 37.1736 136.991 38.203 135.979 39.013C135.067 39.7386 134.004 40.2786 132.857 40.6161C130.899 41.1899 129.279 40.9874 129.262 40.9874L129.195 40.9705L129.212 40.903C129.566 39.2155 130.157 37.7474 130.967 36.5324C131.608 35.5536 132.401 34.7436 133.312 34.1024C134.561 33.2418 135.692 32.9549 136.097 32.8705C136.114 32.8874 136.147 32.9043 136.181 32.9211C136.198 32.938 136.232 32.938 136.249 32.9549L136.266 32.9718C136.282 32.9886 136.299 32.9886 136.299 32.9886C136.333 33.0055 136.367 33.0224 136.401 33.0561C136.434 33.073 136.468 33.1068 136.485 33.1405C136.468 33.1236 136.451 33.1068 136.417 33.0899C136.333 33.0393 136.266 33.0055 136.215 32.9549C136.012 32.9886 134.747 33.208 133.346 34.1868C131.962 35.1486 130.157 37.0555 129.347 40.7174C130.005 40.2111 130.916 39.4686 131.878 38.7093C132.199 38.3043 133.869 36.1443 134.747 35.638C135.135 34.3049 136.249 33.4274 136.519 33.2249C136.552 33.2755 136.569 33.3093 136.586 33.343C136.249 33.5961 134.831 34.7436 134.764 36.4143C135.844 35.5536 136.687 34.8618 136.991 34.6086C136.839 34.5749 136.721 34.5074 136.637 34.4061C136.485 34.1868 136.586 33.8999 136.603 33.883C136.603 33.8661 136.671 33.6805 136.654 33.4949C136.704 33.6636 136.687 33.8324 136.654 33.9336C136.654 33.9336 136.62 34.1699 136.721 34.3386C136.789 34.4399 136.941 34.4905 137.143 34.5074C137.16 34.5074 137.177 34.5074 137.194 34.5074C137.227 34.5074 137.244 34.5074 137.278 34.5074C137.312 34.5074 137.329 34.5074 137.362 34.5074C137.362 34.5074 137.362 34.5074 137.379 34.5074C137.464 34.5074 137.514 34.5074 137.582 34.5074C137.599 34.5074 137.616 34.5074 137.616 34.5074C137.632 34.5074 137.649 34.5074 137.666 34.5074C137.683 34.5074 137.683 34.5074 137.7 34.5074C137.717 34.5074 137.734 34.5074 137.734 34.5074C137.835 34.5411 137.869 34.6086 137.936 34.7436C137.953 34.7774 137.987 34.828 138.004 34.8786C138.071 34.9968 138.122 35.1149 138.189 35.1993C138.206 35.233 138.223 35.2499 138.257 35.2668C138.307 35.3174 138.341 35.3511 138.392 35.3511C138.409 35.3511 138.409 35.3511 138.426 35.3511C138.493 35.368 138.561 35.3343 138.645 35.3005C138.712 35.2668 138.78 35.2161 138.831 35.1824C139.067 35.0305 139.286 34.8786 139.641 35.0643C139.927 35.233 140.13 35.2836 140.265 35.2499C140.349 35.233 140.417 35.1655 140.451 35.0474C140.467 34.9968 140.501 34.9293 140.518 34.8786C140.636 34.558 140.737 34.3218 141.092 34.2711C141.126 34.2711 141.159 34.2711 141.176 34.2543C141.547 34.2036 141.784 34.153 141.784 33.7986C141.699 33.6805 141.682 33.5118 141.682 33.478C141.649 33.4105 141.531 33.0899 141.75 32.9043C142.087 32.6343 142.239 32.4149 142.222 32.2293C142.189 32.1786 142.037 31.9255 141.767 31.7399C141.497 31.5374 141.497 31.2674 141.531 31.1324C141.531 30.8118 141.598 30.6768 141.632 30.6261C141.615 30.5249 141.463 30.4574 141.463 30.4574L141.396 30.4405V30.4236C141.311 30.3899 141.142 30.3055 140.872 30.3055C140.518 30.3055 140.366 30.2211 140.248 29.9849L140.231 30.0186L140.164 29.7824C140.147 29.698 140.029 29.4618 139.894 29.4111C139.826 29.3943 139.742 29.4111 139.657 29.4955C139.252 29.833 138.999 29.833 138.949 29.8161C138.78 29.833 138.51 29.6643 138.476 29.6305L138.459 29.6136C138.442 29.5968 138.442 29.5968 138.426 29.5968C138.358 29.563 138.291 29.5293 138.223 29.5124C138.223 29.5124 138.223 29.5124 138.206 29.5124L138.223 29.5293L138.105 29.4955C138.088 29.4955 138.071 29.4955 138.054 29.4955C138.037 29.4955 138.004 29.4955 137.987 29.5124C137.869 29.5799 137.801 29.7993 137.784 29.8836L137.751 30.0018V30.0186C137.717 30.1536 137.649 30.3561 137.497 30.4236C137.413 30.4743 137.278 30.4743 137.126 30.4911C137.109 30.4911 137.076 30.4911 137.059 30.4911C137.008 30.4911 136.957 30.508 136.907 30.508C136.789 30.5249 136.671 30.5418 136.603 30.6093H136.586C136.586 30.6093 136.434 30.8118 136.586 31.2843C136.721 31.6893 136.536 31.9255 136.401 32.0268H136.384L136.282 32.0605C136.266 32.0774 136.181 32.0774 136.147 32.0943H136.131C136.097 32.1111 136.08 32.1449 136.046 32.1618C136.08 32.128 136.114 32.0774 136.164 32.0268C135.894 31.858 135.135 31.3011 134.578 30.0693C133.329 29.3268 131.321 27.2511 131.287 27.2343V27.3186L128.655 25.5974C128.807 26.0699 129.262 27.403 130.174 28.7699C131.186 30.2886 133.009 32.1449 135.861 32.4824C135.776 32.5499 135.742 32.6005 135.742 32.6005C134.527 32.4318 133.397 31.993 132.384 31.2843C131.507 30.6768 130.731 29.8499 130.056 28.8374Z" fill="#FBF5B5"/>
</svg>
