<svg width="337" height="72" viewBox="0 0 337 72" fill="none" xmlns="http://www.w3.org/2000/svg">
<g clip-path="url(#clip0)">
<path d="M44.3911 48.7294C44.1909 48.7712 43.9933 48.8217 43.7988 48.8809C42.592 47.2784 40.8701 46.1912 38.9648 45.7691L40.257 43.2696L42.8859 40.6427C44.8969 38.6306 44.8969 35.3566 42.8859 33.3445L40.0773 30.5344L54.3644 16.2394C54.3766 16.228 54.3895 16.2177 54.4015 16.2059C54.4136 16.1938 54.4241 16.1805 54.4358 16.168L59.9893 10.6114C59.9894 10.6112 59.9895 10.6111 59.9896 10.6111C59.9898 10.611 59.9898 10.6109 59.9899 10.6107L62.5951 8.004C64.4234 6.17975 64.4244 3.20462 62.5964 1.37087C61.7128 0.48675 60.5353 0 59.28 0C59.279 0 59.2778 0 59.2768 0C58.0221 0.000875 56.846 0.488125 55.9661 1.37087L53.3603 3.97812C53.3603 3.97812 53.3603 3.97812 53.3601 3.97812L53.36 3.97825L47.8053 9.536C47.7931 9.54725 47.7803 9.5575 47.7684 9.56925C47.7563 9.58137 47.7459 9.59437 47.7344 9.60687L44.5844 12.7586C44.0964 13.247 44.0965 14.0384 44.5848 14.5265C45.073 15.0144 45.8645 15.0142 46.3525 14.526L48.6538 12.2235L51.7486 15.32L38.3099 28.7661L35.215 25.6696L38.4203 22.4626C38.9083 21.9742 38.908 21.1829 38.4198 20.6947C37.9313 20.2067 37.1399 20.2069 36.6519 20.6952L33.4476 23.9012L30.64 21.0921C29.6691 20.1207 28.3735 19.5857 26.9919 19.5857C25.6103 19.5857 24.3148 20.1207 23.3433 21.0927L20.7183 23.7226L15.6564 26.3457C15.651 26.3485 15.6456 26.3512 15.6404 26.354L10.7648 28.8806C10.7433 28.891 10.7221 28.9019 10.7011 28.9135L2.83426 32.9904C1.14526 33.8647 0.22988 34.8981 0.0355053 36.1497C-0.152495 37.3609 0.39788 38.621 1.67113 39.8949L5.13326 43.36C5.14613 43.374 5.15988 43.3867 5.17326 43.4001L12.8794 51.1129L20.565 58.8002C20.5841 58.8206 20.6039 58.8405 20.6245 58.8597L24.0909 62.327C25.2023 63.4389 26.3029 63.9999 27.3698 63.9999C27.5255 63.9999 27.6805 63.9879 27.8346 63.964C29.0863 63.7697 30.1195 62.8537 30.9934 61.1637L31.5611 60.0662C31.8768 60.3516 32.2156 60.6156 32.5776 60.8541C33.9528 61.7602 35.5274 62.2291 37.1355 62.2291C37.6993 62.2291 38.2675 62.1714 38.8323 62.0547C39.8991 61.8352 40.9078 61.4111 41.799 60.8121C43.3203 61.914 45.2379 62.3381 47.1155 61.9519C48.8811 61.588 50.3991 60.5582 51.3899 59.0521C52.3803 57.5466 52.7255 55.7455 52.3618 53.9809C51.6128 50.3384 48.0394 47.982 44.3911 48.7294ZM59.2784 2.5H59.2799C59.867 2.5 60.4169 2.72662 60.827 3.137C61.6811 3.99387 61.6823 5.38337 60.8281 6.23562L59.1059 7.95875L56.011 4.86225L57.7354 3.13687C58.1445 2.72662 58.6924 2.50037 59.2784 2.5ZM50.4213 10.4551L54.2438 6.6305L57.3386 9.727L53.516 13.5516L50.4213 10.4551ZM31.1763 48.1139L13.402 30.33L15.9913 28.9882L33.4425 46.449C32.5866 46.8759 31.8235 47.4424 31.1763 48.1139ZM21.2286 26.2739L37.7059 42.7602L36.2236 45.6275C36.2034 45.6297 36.1831 45.632 36.1629 45.6344L18.3198 27.7814L21.2286 26.2739ZM25.1123 22.8595C25.6109 22.3606 26.2785 22.0859 26.9921 22.0859C27.7056 22.0859 28.3733 22.3606 28.872 22.8595L41.1176 35.1117C42.1548 36.1494 42.1548 37.8379 41.1183 38.8749L39.2366 40.7551L23.2328 24.7425L25.1123 22.8595ZM28.7731 60.0154C28.3183 60.8951 27.8365 61.434 27.4516 61.4936C27.0888 61.5505 26.5088 61.2095 25.8593 60.5596L23.008 57.7076L25.7381 52.4376C26.0558 51.8246 25.8163 51.0702 25.2033 50.7527C24.5901 50.4352 23.8359 50.6746 23.5184 51.2876L21.1535 55.8526L15.5335 50.2312L19.4901 46.2609C19.9774 45.7719 19.976 44.9804 19.487 44.4931C18.998 44.0059 18.2065 44.0071 17.7193 44.4962L13.7663 48.463L8.14326 42.8351L12.7069 40.4682C13.3198 40.1505 13.5589 39.396 13.241 38.7831C12.9233 38.1704 12.1685 37.931 11.5559 38.249L6.28988 40.9801L3.44001 38.1277C2.79026 37.4777 2.45001 36.8965 2.50638 36.5332C2.56626 36.1479 3.10476 35.6657 3.98451 35.2104L11.0736 31.5366L29.7133 50.1865C28.9074 51.7986 28.6131 53.6811 29.003 55.5805C29.174 56.4091 29.4644 57.1931 29.86 57.9145L28.7731 60.0154ZM49.3019 57.6782C48.6783 58.6262 47.7228 59.2745 46.6119 59.5034C45.1966 59.795 43.7445 59.3542 42.7278 58.3255C42.2605 57.8527 41.5049 57.8282 41.008 58.2702C40.257 58.9381 39.3305 59.4002 38.3279 59.6065C36.8059 59.9209 35.2524 59.6226 33.9535 58.7669C32.6544 57.9109 31.7658 56.5999 31.4514 55.0767C30.805 51.9277 32.8373 48.8402 35.9816 48.1941C35.9818 48.1941 35.9819 48.1941 35.9821 48.194C36.3779 48.1125 36.7739 48.073 37.1658 48.073C39.2326 48.073 41.1731 49.1741 42.2241 51.0297C42.5513 51.6072 43.2728 51.8284 43.8673 51.5335C44.1919 51.3725 44.5403 51.2524 44.8979 51.1776C47.1915 50.7081 49.4416 52.1915 49.9138 54.4856C50.1428 55.5965 49.9255 56.7305 49.3019 57.6782Z" fill="black" fill-opacity="0.6"/>
<path d="M59.655 52.7421C57.2571 52.7421 55.3063 54.6921 55.3063 57.0889C55.3063 59.4876 57.2571 61.4391 59.655 61.4391C62.0509 61.4391 64 59.4876 64 57.0889C64 54.6921 62.0509 52.7421 59.655 52.7421ZM59.655 58.9391C58.6356 58.9391 57.8063 58.1091 57.8063 57.0889C57.8063 56.0706 58.6356 55.2421 59.655 55.2421C60.6724 55.2421 61.5 56.0705 61.5 57.0889C61.5 58.1091 60.6722 58.9391 59.655 58.9391Z" fill="black" fill-opacity="0.6"/>
<path d="M59.3467 39.4474C59.3467 36.4391 56.9004 33.9916 53.8932 33.9916C50.8881 33.9916 48.4434 36.4391 48.4434 39.4474C48.4434 42.4556 50.8882 44.9031 53.8932 44.9031C56.9004 44.9031 59.3467 42.4556 59.3467 39.4474ZM53.8932 42.4031C52.2666 42.4031 50.9434 41.0773 50.9434 39.4474C50.9434 37.8175 52.2666 36.4916 53.8932 36.4916C55.5217 36.4916 56.8467 37.8175 56.8467 39.4474C56.8467 41.0773 55.5219 42.4031 53.8932 42.4031Z" fill="black" fill-opacity="0.6"/>
<path d="M41.4998 18.8616C41.8207 18.8616 42.1418 18.7391 42.3863 18.4946C42.8745 18.0065 42.8745 17.215 42.3863 16.7268C41.8982 16.2386 41.1067 16.2386 40.6185 16.7268L40.615 16.7303C40.1269 17.2184 40.1286 18.0081 40.6167 18.4963C40.8605 18.74 41.18 18.8616 41.4998 18.8616Z" fill="black" fill-opacity="0.6"/>
</g>
<path d="M148.794 48.0129C144.68 48.0129 141.333 50.9881 141.333 54.6452C141.333 58.3022 144.68 61.2775 148.794 61.2775C152.908 61.2775 156.256 58.3022 156.256 54.6452C156.256 50.988 152.908 48.0129 148.794 48.0129ZM148.794 59.4024C145.843 59.4024 143.442 57.2682 143.442 54.6451C143.442 52.022 145.843 49.8878 148.794 49.8878C151.745 49.8878 154.146 52.0219 154.146 54.6451C154.146 57.2684 151.745 59.4024 148.794 59.4024Z" fill="black" fill-opacity="0.6"/>
<path d="M183.732 60.4575C184.315 60.4575 184.787 60.0378 184.787 59.52V58.0538C184.787 57.536 184.315 57.1163 183.732 57.1163C183.15 57.1163 182.678 57.536 182.678 58.0538V59.52C182.678 60.0378 183.15 60.4575 183.732 60.4575Z" fill="black" fill-opacity="0.6"/>
<path d="M166.564 60.4575C167.146 60.4575 167.618 60.0378 167.618 59.52V58.0538C167.618 57.536 167.146 57.1163 166.564 57.1163C165.981 57.1163 165.509 57.536 165.509 58.0538V59.52C165.509 60.0378 165.981 60.4575 166.564 60.4575Z" fill="black" fill-opacity="0.6"/>
<path d="M175.148 61.3304C176.32 61.3304 177.435 60.8792 178.206 60.0924C178.589 59.702 178.543 59.1099 178.104 58.7697C177.665 58.4297 176.999 58.4702 176.616 58.8605C176.245 59.2387 175.71 59.4555 175.148 59.4555C174.586 59.4555 174.051 59.2387 173.68 58.8605C173.297 58.4702 172.631 58.4295 172.192 58.7697C171.753 59.1099 171.707 59.702 172.09 60.0924C172.861 60.8792 173.976 61.3304 175.148 61.3304Z" fill="black" fill-opacity="0.6"/>
<path d="M192.17 23.7294L191.302 24.5006L173.16 8.375C169.261 4.909 164.069 3.00013 158.541 3C158.54 3 158.54 3 158.54 3C153.011 3 147.819 4.90887 143.921 8.375C140.015 11.8465 137.865 16.4616 137.865 21.3704C137.865 26.2791 140.015 30.8944 143.921 34.3657L144.539 34.9159C143.366 35.7549 142.301 36.7235 141.365 37.8102C138.948 40.6167 137.61 43.9536 137.48 47.4771C135.853 49.5 134.895 51.9749 134.895 54.6451C134.895 61.4576 141.13 67 148.794 67C150.06 67 151.287 66.8479 152.453 66.5648H187.347C190.699 66.5648 193.315 63.9691 192.944 60.993C192.269 55.5901 190.358 50.7318 187.265 46.5527C180.217 37.0301 168.536 33.074 162.201 31.5634C161.006 31.2786 159.779 31.0975 158.552 31.0252C158.552 31.0252 158.552 31.0252 158.552 31.0252C156.768 30.9198 154.993 31.0376 153.258 31.375L150.272 28.7208C148.063 26.7578 146.847 24.1474 146.847 21.3705C146.847 18.5936 148.063 15.9833 150.272 14.0204C154.831 9.96825 162.25 9.96825 166.808 14.0203L178.016 23.9821C178.428 24.3482 179.095 24.3481 179.507 23.9821C179.919 23.616 179.919 23.0224 179.507 22.6562L177.287 20.6826L180.656 17.689L189.811 25.8266L186.443 28.8204L182.464 25.2845C182.053 24.9184 181.385 24.9185 180.973 25.2845C180.561 25.6506 180.561 26.2442 180.973 26.6104L184.951 30.1461L184.083 30.9177C182.731 32.1192 181.987 33.7166 181.987 35.4157C181.987 37.1149 182.731 38.7124 184.083 39.9139C185.169 40.8795 186.937 40.8795 188.023 39.9139L202.29 27.232C203.377 26.2664 203.377 24.6951 202.29 23.7294C199.5 21.2491 194.96 21.2493 192.17 23.7294ZM159.536 32.9965C160.249 33.0819 160.958 33.2083 161.654 33.3743C167.557 34.7817 178.314 38.4022 185.022 46.9525L184.065 47.8027C182.214 49.4485 179.18 49.4577 177.297 47.7552C173.251 44.0919 168.104 41.4883 162.694 39.7564C160.806 39.1519 159.536 37.553 159.536 35.7801V32.9965H159.536ZM157.427 32.8631V35.78C157.427 38.3551 159.272 40.6532 161.979 41.5202C167.137 43.1714 171.999 45.6351 175.792 49.0692C178.476 51.4954 182.853 51.5319 185.557 49.1286L186.195 48.5616C188.698 52.2665 190.262 56.5121 190.848 61.1996C191.074 63.0187 189.499 64.6896 187.347 64.6896H156.881C160.108 62.6239 162.262 59.409 162.635 55.7749C162.635 55.7741 162.635 55.7734 162.635 55.7725C162.975 52.4444 161.788 49.2104 159.484 46.7487C159.111 46.3503 158.446 46.2966 157.999 46.6275C157.552 46.9575 157.489 47.5484 157.862 47.9479C159.581 49.7848 160.584 52.1505 160.584 54.645C160.584 60.375 155.342 65.1249 148.794 65.1249C142.293 65.1249 137.004 60.4236 137.004 54.645C137.004 46.468 147.175 41.4319 154.985 45.7254C155.481 45.9976 156.131 45.8615 156.437 45.4211C156.744 44.9807 156.59 44.403 156.095 44.1306C151.101 41.3854 144.51 41.7044 139.887 45.1526C140.379 42.9089 141.447 40.8 143.04 38.9501C147.008 34.3438 152.202 33.6234 152.672 33.4385C154.153 33.0619 155.769 32.8529 157.427 32.8631ZM148.78 12.6944C146.173 15.0115 144.738 18.0927 144.738 21.3704C144.738 24.648 146.173 27.7294 148.78 30.0465L150.908 31.9382C150.827 31.9601 150.407 32.0772 149.986 32.2116C148.679 32.6276 147.438 33.1631 146.281 33.8123L145.412 33.0401C141.905 29.9228 139.974 25.7784 139.974 21.3705C139.974 16.9626 141.905 12.8182 145.412 9.70087C148.913 6.58862 153.575 4.87487 158.541 4.875C163.506 4.87513 168.168 6.58887 171.669 9.70075L179.164 16.363L175.795 19.3568L168.3 12.6944C162.919 7.91138 154.163 7.91138 148.78 12.6944ZM200.799 25.9061L186.532 38.588C186.268 38.8225 185.838 38.8225 185.574 38.588C184.621 37.7406 184.096 36.614 184.096 35.4157C184.096 34.2175 184.621 33.0909 185.574 32.2435L193.661 25.0553C194.645 24.1805 195.937 23.7434 197.23 23.7434C198.522 23.7434 199.815 24.1807 200.799 25.0553C201.063 25.2898 201.063 25.6715 200.799 25.9061Z" fill="black" fill-opacity="0.6"/>
<path d="M320.086 30.6758C319.683 30.4466 319.271 30.2109 318.851 29.9557L318.853 26.6666H318.854C319.626 26.6666 320.25 26.0702 320.25 25.3333V17.3333C320.25 12.1875 315.866 8 310.479 8H295.125C293.585 8 292.333 9.19662 292.333 10.6666H289.542C288.001 10.6666 286.75 11.8633 286.75 13.3333V16C286.75 17.47 288.002 18.6666 289.542 18.6666H292.333C292.333 20.1366 293.585 21.3333 295.125 21.3333H296.704L292.568 27.2604C292.281 27.6692 292.254 28.1953 292.5 28.6289C292.742 29.0625 293.214 29.3333 293.729 29.3333H296.521C296.823 29.3333 297.118 29.2395 297.358 29.0664L306.292 22.666V25.3334C306.292 26.0704 306.916 26.6667 307.688 26.6667V29.9636L307.54 30.0613C302.377 33.4219 297.917 36.3256 297.917 57.3334V66.6668C297.917 69.6081 300.422 72 303.5 72H323.042C326.12 72 328.625 69.6081 328.625 66.6666V57.3332C328.625 36.6002 325.381 33.6966 320.086 30.6758ZM292.333 16H289.542V13.3334H292.333V16ZM296.619 26.263L300.06 21.3333H303.501L296.619 26.263ZM295.125 18.6666V10.6666H310.479C314.329 10.6666 317.458 13.6575 317.458 17.3333V24H309.083V20C309.083 19.263 308.459 18.6666 307.687 18.6666H295.125ZM309.111 32.2644L309.877 31.7631C310.256 31.5144 310.479 31.1042 310.479 30.6667V26.6667H316.063L316.06 30.668C316.06 31.1067 316.283 31.5156 316.662 31.7656C317.341 32.2149 318.006 32.5964 318.655 32.9661C321.936 34.8375 324.65 36.4016 325.53 48H301.082C302.134 36.8071 305.297 34.7469 309.111 32.2644ZM325.833 66.6666C325.833 68.1366 324.582 69.3332 323.042 69.3332H303.5C301.96 69.3332 300.708 68.1366 300.708 66.6666V64H325.833V66.6666ZM325.833 61.3334H300.708V57.3334C300.708 54.8445 300.77 52.6379 300.884 50.6668H325.693C325.784 52.6356 325.834 54.8419 325.834 57.3334V61.3334H325.833Z" fill="black" fill-opacity="0.6"/>
<path d="M283.958 14.6666C283.958 13.9296 283.334 13.3333 282.562 13.3333H279.771C278.999 13.3334 278.375 13.9298 278.375 14.6666C278.375 15.4036 278.999 16 279.771 16H282.562C283.334 16 283.958 15.4036 283.958 14.6666Z" fill="black" fill-opacity="0.6"/>
<path d="M280.542 10.5267L283.331 11.86C283.53 11.955 283.746 12.0007 283.956 12.0007C284.466 12.0007 284.959 11.7312 285.204 11.2637C285.548 10.6062 285.27 9.80403 284.58 9.47453L281.791 8.14128C281.112 7.81703 280.264 8.07753 279.918 8.73765C279.575 9.39515 279.853 10.1973 280.542 10.5267Z" fill="black" fill-opacity="0.6"/>
<path d="M283.334 17.474L280.542 18.8073C279.853 19.1366 279.575 19.9375 279.918 20.5964C280.163 21.0639 280.657 21.3334 281.167 21.3334C281.377 21.3334 281.589 21.2878 281.791 21.1927L284.583 19.8594C285.272 19.53 285.551 18.7291 285.207 18.0703C284.861 17.4115 284.027 17.1485 283.334 17.474Z" fill="black" fill-opacity="0.6"/>
<defs>
<clipPath id="clip0">
<rect width="64" height="64" fill="white"/>
</clipPath>
</defs>
</svg>
