<svg width="55" height="55" viewBox="0 0 55 55" fill="none" xmlns="http://www.w3.org/2000/svg">
<path d="M3.61068 22.8156C1.22596 21.3393 1.22596 21.2636 2.21013 18.8032C2.89148 17.1377 3.72423 15.5478 4.67055 13.9959C5.27619 13.0117 6.03325 12.5953 7.24453 12.671C9.13717 12.8225 10.9541 13.2767 12.771 13.9202C13.1495 14.0716 13.5281 14.3366 14.0959 14.223C13.4902 12.4439 12.7332 10.7784 12.4303 8.96149C11.9761 6.38751 12.1275 5.89542 14.4365 4.64629C15.7614 3.92709 17.1619 3.32144 18.5246 2.7158C19.6981 2.18586 20.4173 2.60224 20.7958 3.81353C21.0607 4.68414 21.4014 5.55475 22.1963 6.42536C22.4234 5.06266 22.6127 3.96494 22.802 2.86721C22.9912 1.65592 23.5969 0.898873 24.8839 0.709609C25.868 0.596052 26.8144 0.331083 27.7985 0.14182C30.2211 -0.27456 30.751 0.141818 30.6753 2.52654C30.5239 7.18241 31.281 11.649 32.7951 16.0399C33.9685 19.5602 35.7097 22.8156 37.9809 25.7681C38.8894 26.9415 39.4193 27.9635 38.0187 29.1748C37.2617 29.8183 37.9052 30.3861 38.3216 30.8782C40.9334 33.9821 43.5452 37.1239 46.1571 40.2278C48.8067 43.3696 51.4564 46.5113 54.1061 49.6531C55.2417 51.0158 55.2038 52.8327 54.0304 54.044C52.8191 55.2931 51.1915 55.331 49.6774 54.0819C43.4695 48.9717 37.2995 43.8238 31.1296 38.6758C30.2589 37.9566 29.5776 37.3888 28.5556 38.5623C27.9121 39.2815 27.1172 38.9029 26.4358 38.3352C22.9155 35.1934 18.7896 33.1493 14.2851 31.8245C10.9541 30.8403 7.54735 30.4618 4.06491 30.6511C3.23215 30.6889 2.36154 30.7268 1.52878 30.7268C0.54461 30.7268 0.0525255 30.1968 0.0146729 29.2127C-0.0610324 27.6986 0.166082 26.1844 0.468904 24.7082C0.620314 23.989 1.07455 23.5726 1.79375 23.3834C2.28583 23.1941 2.81577 23.0427 3.61068 22.8156ZM7.09312 25.276C5.91969 25.276 4.78411 25.3138 3.68638 25.6545C3.00503 25.8438 2.85362 26.3359 2.85362 26.9794C2.89147 27.6986 3.34571 27.8121 3.9135 27.8121C4.29202 27.8121 4.67055 27.8121 5.04908 27.8121C13.0738 27.8121 20.3037 30.2347 26.6629 35.0798C27.42 35.6476 27.8364 35.5719 28.442 34.9284C30.4482 32.8087 32.4544 30.6511 34.612 28.6449C35.5583 27.7743 35.634 27.2443 34.9148 26.2223C30.3347 19.6738 28.2906 12.2925 27.7985 4.41917C27.7607 3.88923 28.1392 3.01862 27.0793 3.05647C26.2466 3.09433 25.4138 3.17003 25.2245 4.38132C24.9974 6.12254 24.8839 7.86376 25.0731 9.60498C25.1488 10.362 25.1867 11.0812 24.4296 11.4976C23.6347 11.9518 22.9912 11.5733 22.3856 11.0055C21.0229 9.71854 19.8116 8.35584 18.9789 6.69033C18.7517 6.2361 18.6003 5.70616 17.8811 5.85757C15.4207 6.3118 14.6258 7.56094 15.3071 9.9078C16.1021 12.671 17.6162 15.0558 19.2438 17.4026C20.0009 18.4625 19.8116 19.371 18.8274 19.7116C18.1082 19.9766 17.5405 19.5602 17.0105 19.1817C15.08 17.8569 13.036 16.797 10.8027 16.0778C7.13097 14.8665 6.37392 15.2829 4.97337 18.9546C4.67055 19.7116 4.74626 20.1659 5.54116 20.5065C6.37392 20.8472 7.20668 21.2636 7.92588 21.7557C8.79649 22.3613 10.3484 22.6263 10.0078 24.1025C9.6671 25.7681 8.15299 25.1624 7.09312 25.276ZM35.3312 32.0138C35.1419 32.1652 34.9148 32.3166 34.6877 32.5058C34.1199 33.0736 33.5521 33.6414 32.9843 34.2092C31.5838 35.6098 31.5838 35.6098 33.1357 36.8967C37.0724 40.1521 40.9712 43.4074 44.8701 46.6627C46.8763 48.3283 48.8824 49.9559 50.8886 51.6214C51.1915 51.8485 51.57 52.3785 51.9485 51.9243C52.327 51.5079 51.7971 51.1672 51.5321 50.8644C50.8129 49.9938 50.0937 49.1232 49.3367 48.2525C45.0593 43.1803 40.782 38.0702 36.4668 32.9979C36.2018 32.6573 35.9368 32.1652 35.3312 32.0138Z" fill="black"/>
<path d="M8.26656 47.9875C6.97957 47.9875 5.73043 46.7005 5.73043 45.3757C5.73043 43.9752 6.97957 42.8017 8.41797 42.8396C9.85637 42.8774 10.8405 43.9373 10.8027 45.4514C10.8027 46.8141 9.5914 48.0254 8.26656 47.9875Z" fill="black"/>
<path d="M5.73044 39.2058C4.70842 39.2058 3.72425 38.2973 3.72425 37.2374C3.6864 36.2154 4.67056 35.2312 5.69259 35.2312C6.71461 35.1934 7.66092 36.1775 7.66092 37.1996C7.69877 38.3351 6.82817 39.2058 5.73044 39.2058Z" fill="black"/>
</svg>
